<svg xmlns="http://www.w3.org/2000/svg" width="241.911" height="60" viewBox="251.092 496.181 241.911 60" enable-background="new 251.092 496.181 241.911 60"><g transform="translate(-985.904 -3367.887)"><g fill="none"><path d="M1249.415 3902.277l-12.117 19.772c-.68 1.11-.172 2.018 1.13 2.018h14.21c1.302 0 2.93-.906 3.615-2.013l6.416-10.365-13.255-9.413zM1267.028 3883.49l-10.774-17.406c-.686-1.107-2.312-2.014-3.615-2.014h-14.21c-1.304 0-1.812.91-1.13 2.02l13.795 22.51 7.755-10.92 8.178 5.81z"/></g><linearGradient id="a" gradientUnits="userSpaceOnUse" x1="2465.913" y1="241.468" x2="2481.401" y2="231.79" gradientTransform="matrix(1 0 0 -1 -1221.895 4148.649)"><stop offset=".54" stop-color="#0A985C"/><stop offset=".54" stop-color="#F6C25B"/></linearGradient><path fill="url(#a)" d="M1261.928 3907.385c-1.18-1.983-4.04-7.077-6.177-10.872l-2.41-4.248c.554 1.118.514 2.78-.123 3.82l-15.91 25.962c-.68 1.11-.173 2.02 1.13 2.02h14.208c1.303 0 2.93-.907 3.615-2.014l6.427-10.378c-.137.188.76-1.74-.76-4.29z"/><path d="M1249.422 3902.275l-12.116 19.773c-.68 1.11-.17 2.02 1.132 2.02h14.208c1.303 0 2.93-.907 3.615-2.014l6.42-10.366-13.258-9.413zM1267.036 3883.487l-10.776-17.406c-.683-1.107-2.31-2.012-3.613-2.012h-14.21c-1.303 0-1.81.91-1.13 2.02l13.796 22.513 7.757-10.92 8.176 5.807z" fill="none"/><path opacity=".09" fill="#010101" enable-background="new" d="M1272.34 3896.083c.687-1.108.687-2.922 0-4.03l-5.303-8.567-8.177-5.808-7.757 10.92 2.114 3.45c.68 1.11.68 2.927 0 4.037l-3.795 6.19 13.257 9.413 9.66-15.605z"/><linearGradient id="b" gradientUnits="userSpaceOnUse" x1="2470.382" y1="259.66" x2="2486.265" y2="269.585" gradientTransform="matrix(1 0 0 -1 -1221.895 4148.649)"><stop offset=".57" stop-color="#5586C5"/><stop offset=".57" stop-color="#D9423E"/></linearGradient><path fill="url(#b)" d="M1272.336 3892.058l-16.076-25.973c-.685-1.108-2.313-2.014-3.615-2.014h-14.212c-1.302 0-1.81.91-1.13 2.02l15.91 25.962 2.537 4.462c2.138 3.794 4.998 8.888 6.177 10.872 1.775 2.985.247 5.115.935 4.006l9.474-15.304c.686-1.11.686-2.92 0-4.03zm-19.103.024l.057.094.004.007-.06-.1zm1.134 1.98l.168.295-.168-.296zm-.014-.037l.27.48-.27-.48z"/><path d="M1306.167 3890.12h14.065v17.565c-3.82 1.308-8.017 1.96-12.594 1.96-5.023 0-8.905-1.455-11.646-4.367s-4.112-7.066-4.112-12.46c0-5.26 1.5-9.354 4.502-12.282 3-2.927 7.207-4.39 12.616-4.39 2.05 0 3.986.192 5.807.58s3.407.876 4.76 1.47l-2.787 6.91c-2.348-1.16-4.926-1.74-7.734-1.74-2.57 0-4.56.837-5.963 2.51-1.403 1.67-2.105 4.06-2.105 7.165 0 3.048.635 5.37 1.906 6.967s3.103 2.396 5.495 2.396c1.308 0 2.51-.126 3.61-.38v-5.103h-5.816v-6.8zm45.676 2.097c0 5.44-1.498 9.63-4.492 12.572s-7.202 4.412-12.626 4.412h-10.543v-32.588h11.28c5.23 0 9.27 1.337 12.114 4.012 2.845 2.675 4.27 6.538 4.27 11.59zm-9.14.312c0-2.988-.59-5.202-1.77-6.643s-2.977-2.162-5.384-2.162h-2.564v18.255h1.96c2.676 0 4.638-.776 5.886-2.33s1.87-3.926 1.87-7.12zm25.37-2.41h14.065v17.565c-3.82 1.308-8.018 1.96-12.594 1.96-5.022 0-8.904-1.455-11.646-4.367-2.74-2.912-4.112-7.066-4.112-12.46 0-5.26 1.5-9.354 4.503-12.282 3-2.927 7.206-4.39 12.614-4.39 2.05 0 3.986.192 5.807.58s3.407.876 4.76 1.47l-2.786 6.91c-2.348-1.16-4.926-1.74-7.734-1.74-2.57 0-4.56.837-5.963 2.51-1.403 1.67-2.105 4.06-2.105 7.165 0 3.048.635 5.37 1.905 6.967s3.102 2.396 5.494 2.396c1.31 0 2.512-.126 3.612-.38v-5.103h-5.817v-6.8zM1404.968 3909.2v-32.587h5.327v28.02h13.798v4.568h-19.125zm27.11 0l-9.362-24.65h5.528l5.015 14.33c.86 2.408 1.38 4.355 1.56 5.84h.178c.134-1.068.654-3.016 1.56-5.84l5.017-14.33h5.572l-9.406 24.65h-5.663zm15.805-31.182c0-.936.256-1.657.77-2.162.512-.505 1.244-.758 2.195-.758.92 0 1.638.253 2.15.758.513.505.77 1.226.77 2.162 0 .892-.257 1.594-.77 2.106s-1.23.77-2.15.77c-.95 0-1.684-.257-2.196-.77s-.77-1.215-.77-2.106zm5.55 31.183h-5.237v-24.65h5.237v24.65zm10.413 0l-9.36-24.65h5.527l5.015 14.33c.86 2.408 1.382 4.355 1.56 5.84h.18c.133-1.068.653-3.016 1.56-5.84l5.016-14.33h5.572l-9.406 24.65h-5.664z" enable-background="new" fill="#4E4E4E"/></g></svg>