<svg xmlns="http://www.w3.org/2000/svg" width="163.657" height="96.005" viewBox="0 0 163.657 96.005"><g id="Label_1_"><g fill="#0894D8" id="COMMUNITY"><path d="M48.85 95.666c-.33.164-.988.33-1.83.33-1.953 0-3.422-1.234-3.422-3.505 0-2.167 1.47-3.637 3.617-3.637.863 0 1.408.185 1.644.308l-.217.73c-.34-.163-.822-.287-1.398-.287-1.624 0-2.703 1.038-2.703 2.857 0 1.696.976 2.785 2.662 2.785.545 0 1.1-.113 1.46-.288l.185.71zM57.728 92.357c0 2.384-1.45 3.648-3.217 3.648-1.828 0-3.113-1.418-3.113-3.515 0-2.2 1.367-3.638 3.217-3.638 1.89 0 3.114 1.45 3.114 3.505zm-5.375.113c0 1.48.802 2.805 2.21 2.805 1.417 0 2.22-1.305 2.22-2.877 0-1.377-.72-2.816-2.21-2.816-1.48 0-2.22 1.367-2.22 2.888zM66.78 92.85c-.05-.965-.112-2.126-.102-2.99h-.03c-.237.812-.525 1.675-.875 2.63l-1.223 3.36h-.678l-1.12-3.298c-.33-.976-.606-1.87-.802-2.692h-.02c-.02.863-.072 2.024-.134 3.062l-.185 2.97h-.852l.483-6.926h1.142l1.182 3.35c.288.853.524 1.613.7 2.333h.03c.175-.7.42-1.46.73-2.334l1.233-3.35h1.14l.433 6.926h-.874l-.175-3.04zM77.098 92.85c-.05-.965-.113-2.126-.103-2.99h-.03c-.237.812-.525 1.675-.875 2.63l-1.223 3.36h-.677l-1.12-3.298c-.33-.976-.606-1.87-.802-2.692h-.02c-.022.863-.073 2.024-.135 3.062l-.185 2.97h-.853l.483-6.926H72.7l1.182 3.35c.288.853.524 1.613.7 2.333h.03c.175-.7.42-1.46.73-2.334l1.233-3.35h1.14l.433 6.926h-.874l-.176-3.04zM82.472 88.966v4.1c0 1.552.69 2.21 1.613 2.21 1.028 0 1.685-.68 1.685-2.21v-4.1h.904v4.04c0 2.126-1.12 3-2.62 3-1.42 0-2.488-.812-2.488-2.96v-4.08h.906zM90.282 95.892v-6.926h.976l2.22 3.504c.514.812.915 1.54 1.244 2.25l.02-.01c-.08-.925-.102-1.767-.102-2.847v-2.898h.843v6.926h-.904l-2.2-3.513c-.483-.77-.945-1.562-1.295-2.312l-.03.01c.05.873.07 1.706.07 2.857v2.96h-.843zM99.993 88.966v6.926H99.1v-6.926h.893zM104.925 89.726h-2.107v-.76h5.128v.76h-2.117v6.166h-.905v-6.166zM112.602 95.892v-2.94l-2.19-3.986h1.018l.976 1.91c.267.525.473.946.69 1.43h.02c.195-.453.432-.905.7-1.43l.996-1.91h1.017l-2.323 3.977v2.95h-.905z"/></g><g fill="#00386D" id="UZHHOROD_IT"><path d="M1.81 68.69v8.202c0 3.103 1.376 4.42 3.226 4.42 2.055 0 3.37-1.357 3.37-4.42v-8.2h1.81v8.076c0 4.254-2.24 6-5.24 6C2.135 82.77 0 81.147 0 76.85v-8.16h1.81zM16.483 81.495l7.687-11.242v-.062h-7.03v-1.5h9.35v1.09l-7.645 11.2v.063h7.748v1.5h-10.11v-1.048zM34.692 68.69v5.797h6.7V68.69h1.81v13.854h-1.81V76.05h-6.7v6.494h-1.788V68.69h1.788zM52.202 68.69v5.797h6.7V68.69h1.81v13.854H58.9V76.05h-6.7v6.494h-1.788V68.69h1.788zM79.763 75.473c0 4.768-2.898 7.296-6.433 7.296-3.658 0-6.227-2.837-6.227-7.03 0-4.398 2.733-7.276 6.433-7.276 3.78 0 6.227 2.898 6.227 7.01zm-10.75.226c0 2.96 1.604 5.61 4.42 5.61 2.836 0 4.44-2.61 4.44-5.755 0-2.754-1.44-5.63-4.42-5.63-2.96 0-4.44 2.732-4.44 5.774zM86.196 68.876c.904-.185 2.2-.288 3.432-.288 1.91 0 3.145.35 4.008 1.13.7.617 1.09 1.562 1.09 2.63 0 1.83-1.152 3.043-2.61 3.536v.062c1.068.37 1.705 1.357 2.034 2.795.452 1.933.78 3.27 1.07 3.803h-1.85c-.227-.39-.535-1.583-.926-3.31-.41-1.91-1.15-2.63-2.775-2.69h-1.686v6h-1.788V68.876zm1.788 6.31h1.83c1.91 0 3.123-1.05 3.123-2.632 0-1.788-1.295-2.57-3.186-2.59-.862 0-1.48.082-1.766.164v5.057zM113.263 75.473c0 4.768-2.898 7.296-6.433 7.296-3.658 0-6.228-2.837-6.228-7.03 0-4.398 2.734-7.276 6.433-7.276 3.782 0 6.228 2.898 6.228 7.01zm-10.75.226c0 2.96 1.604 5.61 4.42 5.61 2.836 0 4.44-2.61 4.44-5.755 0-2.754-1.44-5.63-4.42-5.63-2.96 0-4.44 2.732-4.44 5.774zM119.696 68.876c1.09-.164 2.384-.288 3.802-.288 2.57 0 4.398.596 5.61 1.726 1.234 1.13 1.953 2.733 1.953 4.974 0 2.26-.698 4.11-1.993 5.385-1.295 1.295-3.432 1.994-6.125 1.994-1.274 0-2.343-.062-3.247-.164V68.876zm1.788 12.25c.452.08 1.11.102 1.81.102 3.822 0 5.898-2.138 5.898-5.878.02-3.268-1.83-5.344-5.61-5.344-.926 0-1.625.082-2.097.185v10.935zM147.75 68.69v13.854h-1.79V68.69h1.79zM157.614 70.212H153.4v-1.52h10.257v1.52h-4.234v12.332h-1.81V70.212z"/></g></g><g id="Meshes_1_"><path fill="#0894D8" d="M127.19 33.814v-.03h-.03l-6.65-7.194-.086.257-.17-.257-.355.39-.032-.004.004.034-3.23 3.554-3.528-3.327.01-.116-.146-.012-.024-.022-.022-.11-.088.006-9.675-9.127-.056.092-.073-.092-.382.386h-.002v.003l-3.76 3.793-.078-.006-.007.092-.233.237-.03-.01.002.036-4.933 4.974h-.08l-.017.098-3.604 3.635-8.196-9.79.014-.17-.168-.015-4.343-5.19-.183.302-.13.112-.202-.03.01.195-2.284 1.96L66.56 8.222l-.065.577-.064-.062-23.142 28.11-4.346-4.09-.16.282-.225-.28-.314.384h-.07l.006.08-4.778 5.864-2.824 3.177.137.123-.12.147-.092-.04-.14.324L19.932 55.62l.13.128 9.586-11.27-1.757 4.08.353.152 2.253-5.232.757-.89 3.057.122.015-.385-2.755-.11 6.703-7.88.283 3.3h.257l.32-3.73 3.904 3.333v.01l-.173-.04-.968 3.383.573.17.76-3.42 6.58.85-.003.018-5.055 2.987.196.332 4.747-2.805-1.388 6.36-3.457-1.152-.128.257 3.468 1.298v2.684l.128-.13.315-2.39.007.004.013-.092 3.696.924-2.274 4.03.068.037-.028.056 3.85 2.332-2.694 3.062.01.118-.01.01.012.008.5 5.516h.258l-.237-5.21 1.65.97.257-.127-1.925-1.247-.002-.04h-.058l-.028-.017 2.677-2.824.2-.15-3.93-2.725 2.016-3.573 3.585.618.065-.38-3.45-.595.373-.662-.336-.19-.107.19-1.39-6.777 4.234 4.884.257-.257-4.12-5.138h.143l6.418 2.954v-.256l-4.986-2.698h4.728v-.256l-6.013-.437-.728-.394 4.607-7.153 2.262 5.543.257-.128-2.23-5.865.096-.147 3.803.746.128-.257-3.716-.825.18-.282 5.463-.95-.128-.257-4.975.65 2.6-4.036.32.047.256-.385h3.212v-.257l-3.172-.32 2.295-2.638-.088-.076.694-2.578.79 2.4h.258l-.77-2.826-.08.08-.02-.21 2.412-1.54-.128-.128-2.328 1.164-.27-2.967.25-.295 2.795-.248-.448 2.346h.257l.573-2.066 3.917 4.73.012.354 3.473-.116-1.424 2.492.13.128 1.64-2.077.8 5.032.128-.128-.51-4.888 2.295 1.68.013.252.133-.066-.005.195 3.886.055-.76 3.482-.022-.002-.02.192-.022.192 4.524.488-.907 3.173.044.09-.044.04.08.03.048.098.03-.066 5.535 2.19-.94 3.528.31-.068 1.05-3.15.083.038.078.09.04-.032 3.716 1.797-.14.168.356.214-.87 6.337.313-.074 1.39-5.165 2.653 5.88h-.116v.1l-3.82-.674-.067.38 3.887.687v4.648l.193-.064-.193.194 4.128 2.342 2.77 4.818.168-.095-2.57-5.14-.256.258.097-.167-3.94-2.396.375-4.887h-.228l-2.095-5.695 3.478 2.74.128-.257-3.982-3.597-.022.03-.02-.05 4.924-1.008-.128-.257-5.284.705-.124-.057 4.248-5.4 1.674 2.827.16-.234-1.482-3.04 3.77-4.795 5.514 5 .192-.21 3.81-.054-.34 3.96.385.033.323-3.773 3.257 2.962-.047.024 1.636 4.658-.095.095 5.067 5.082-.057.057 2.44 4.24.13-.258-2.185-4.367-.053.053-4.828-5.32-.092.092-1.296-4.103.103-.117-.112-.105 3.058-2.772.393 3.534.256-.128.106-3.6 5.68 5.913h-3.088v.257l3.69.37 12.238 12.732.128-.128-12.2-13.202zM54.714 23.97l.66 4.672-5.02.47 4.36-5.142zM43.687 36.976l6-7.076.955 7.04-.14-.074-.196.59-.14-.01-.177-.066-.013.053-6.29-.457zm8.802 9.147l-3.79-.947 1.886-6.034 1.903 6.98zm4.005-17.65l-.34.043.083.332-.188.275-.118-.026-.026.14-.266.178.08.193-4.72 6.92-.826-6.892 5.255-.6.022.16.378-.075-.018-.13.243-.027-.057-.38-.24.022-.698-4.924 4.274.626-2.84 4.166zm3.128-4.59l-.03.044-4.33-.604 3.325-3.92 1.034 4.337v.144zm2.51-3.252l.084.023-2.29 2.634-1.014-4.182-.086.016.098-.115 3.956-1.145-.746 2.77zm-2.757-2.157l3.337-3.936.263 2.893-3.6 1.043zm6.803-5.265l-2.51.202 2.595-3.062-.086 2.86zm.508-3.36l.068-.08 3.47 4.2-3.538-.59v-3.53zm3.725 8.327l-3.48-4.365 3.48.58v3.785zm.23.38l.027-.058h.128V14.66l3.128 3.784-3.284.11zm4.072.202l2.04-1.508.17 3.305-2.21-1.798zm2.54 2l.275-3.383 3.174 3.67-3.448-.286zm3.3 4.267l.98-3.017 2.98 3.445-3.96-.428zM84.03 29l1.206-2.715 3.947 4.565L84.03 29zm10.1 4.223l-3.92-1.78-.043-.052 3.296-3.173.78 4.87-.113.136zm.39-.472L94 28.087l4.684-.356-4.165 5.02zm-.158-5.4l4.273-4.114.406 4.063-4.68.05zm4.936-.357l-.164-4.237.3-.29 3.39.276-3.526 4.25zm.506-4.883l2.913-2.806.175 3.056-3.088-.25zm3.495-3.146l4.387 3.99-4.387-.71v-3.28zm.388 3.864l4.274.51.415 3.744-4.69-4.254zm5.068 4.454l-.05-3.402 3.465 3.15-3.415.252zm-52.22 2.655l3.86 3.717.128-.128-3.716-3.86-.272.27zm-2.87 20.23l.36-.14-1.157-2.954-.36.14 1.157 2.954z" id="Shapes"/><path fill="#0894D8" d="M30.72 41.233c-.78 0-1.412.633-1.412 1.413s.633 1.413 1.413 1.413 1.414-.634 1.414-1.414c0-.78-.632-1.413-1.413-1.413zM20.06 54.978c-.355 0-.642.288-.642.642 0 .355.288.642.642.642.355 0 .642-.288.642-.642 0-.355-.287-.642-.642-.642zm98.137-21.452c-1.064 0-1.927.863-1.927 1.927s.863 1.927 1.927 1.927 1.927-.863 1.927-1.927-.863-1.927-1.927-1.927zm15.286 6.423c-.568 0-1.028.46-1.028 1.027 0 .568.46 1.028 1.028 1.028.568 0 1.028-.46 1.028-1.028 0-.568-.46-1.028-1.027-1.028zm5.78 6.42c-.355 0-.642.29-.642.643 0 .355.29.642.643.642.355 0 .642-.288.642-.642 0-.354-.287-.642-.642-.642zm-34.94 6.295c-.354 0-.64.288-.64.642 0 .355.287.642.64.642.356 0 .643-.29.643-.643 0-.354-.287-.642-.642-.642zm20.94-8.477c-.356 0-.643.288-.643.642 0 .355.288.642.642.642s.642-.288.642-.642c0-.355-.287-.642-.642-.642zm-31.985-4.753c-.568 0-1.028.46-1.028 1.028 0 .568.46 1.028 1.028 1.028.568 0 1.028-.46 1.028-1.027 0-.568-.46-1.028-1.028-1.028zm29.8.128c-.568 0-1.028.46-1.028 1.028 0 .57.46 1.03 1.028 1.03.568 0 1.028-.46 1.028-1.03 0-.567-.46-1.027-1.028-1.027zm-47.784-20.81c0-.567-.46-1.027-1.028-1.027-.568 0-1.028.46-1.028 1.028 0 .568.46 1.028 1.028 1.028.568 0 1.028-.46 1.028-1.028zM63.477 23.25c-.355 0-.642.288-.642.642s.288.642.642.642c.355 0 .642-.288.642-.642s-.29-.642-.643-.642zm-1.413 3.982c-.355 0-.642.288-.642.642 0 .355.288.642.642.642.355 0 .642-.288.642-.642 0-.355-.288-.642-.642-.642zm-1.67 5.652c-.355 0-.642.288-.642.642s.288.642.642.642c.355 0 .642-.288.642-.642s-.288-.642-.642-.642zM58.34 40.72c-.356 0-.643.287-.643.64 0 .356.288.643.642.643.354 0 .64-.288.64-.642 0-.353-.287-.64-.64-.64zm-2.057 5.78c-.355 0-.642.288-.642.642 0 .355.29.642.643.642.355 0 .642-.288.642-.642 0-.355-.287-.642-.642-.642zm20.81-26.847c-.78 0-1.413.633-1.413 1.413s.633 1.413 1.413 1.413 1.413-.634 1.413-1.414c0-.78-.633-1.413-1.413-1.413zM38.685 36.48c-.568 0-1.028.46-1.028 1.028 0 .568.46 1.028 1.028 1.028.568 0 1.028-.46 1.028-1.028 0-.567-.46-1.028-1.028-1.028zm-4.56 5.01c-.46 0-.835.374-.835.835s.374.835.835.835c.46 0 .835-.374.835-.835s-.374-.835-.835-.835zm-5.844 6.294c-.354 0-.64.288-.64.642s.287.642.64.642c.356 0 .643-.288.643-.642s-.288-.642-.642-.642zm23.636 13.102c-.355 0-.642.288-.642.642s.288.642.642.642c.355 0 .642-.288.642-.642s-.287-.642-.642-.642zm-7-17.855c-.604 0-1.093.49-1.093 1.093s.49 1.092 1.092 1.092c.603 0 1.092-.49 1.092-1.092s-.49-1.092-1.092-1.092zm4.945-12.2c.78 0 1.414-.634 1.414-1.414 0-.78-.633-1.413-1.413-1.413s-1.412.633-1.412 1.413.632 1.413 1.413 1.413zM70.8 12.973c-.78 0-1.413.633-1.413 1.413s.633 1.413 1.413 1.413 1.413-.633 1.413-1.413-.63-1.413-1.412-1.413zM81.46 19.91c-.85 0-1.54.69-1.54 1.54 0 .852.69 1.542 1.54 1.542s1.54-.69 1.54-1.54c0-.852-.69-1.542-1.54-1.542zm8.35 10.405c-.57 0-1.03.46-1.03 1.028 0 .568.46 1.028 1.03 1.028.567 0 1.027-.46 1.027-1.027 0-.568-.46-1.028-1.028-1.028zm3.917-1.285c.745 0 1.35-.604 1.35-1.35 0-.744-.605-1.348-1.35-1.348-.745 0-1.35.604-1.35 1.35 0 .744.605 1.348 1.35 1.348zm23.828 1.8c0-.57-.46-1.03-1.028-1.03-.568 0-1.028.46-1.028 1.03 0 .567.46 1.027 1.027 1.027.568 0 1.028-.46 1.028-1.028zm-9.25-8.993c-.85 0-1.54.69-1.54 1.54s.69 1.542 1.54 1.542 1.542-.69 1.542-1.542-.69-1.54-1.54-1.54zm18.755 11.047c-.78 0-1.413.633-1.413 1.413s.633 1.413 1.413 1.413 1.413-.633 1.413-1.413-.632-1.413-1.413-1.413zM43.053 38.15c.568 0 1.028-.46 1.028-1.028 0-.568-.46-1.028-1.027-1.028-.568 0-1.028.46-1.028 1.028 0 .568.46 1.028 1.028 1.028zm20.36-21.965c-.96 0-1.735.776-1.735 1.734s.776 1.733 1.734 1.733 1.734-.776 1.734-1.734-.776-1.735-1.734-1.735zm34.232 28.773c-.568 0-1.028.46-1.028 1.028 0 .568.46 1.028 1.028 1.028.568 0 1.028-.46 1.028-1.028 0-.568-.46-1.028-1.028-1.028zm3.982 2.57c-.568 0-1.028.46-1.028 1.027 0 .568.46 1.028 1.027 1.028.568 0 1.028-.46 1.028-1.028 0-.568-.46-1.028-1.028-1.028zm-46.885-3.854c0 .568.46 1.028 1.028 1.028s1.028-.46 1.028-1.028c0-.568-.46-1.028-1.028-1.028s-1.028.46-1.028 1.028zm3.468-9.763c-.78 0-1.413.634-1.413 1.414 0 .78.633 1.413 1.413 1.413s1.413-.633 1.413-1.413-.633-1.413-1.413-1.413zm-3.982 18.113c-.568 0-1.028.46-1.028 1.028 0 .57.46 1.03 1.028 1.03.568 0 1.028-.46 1.028-1.03 0-.567-.46-1.027-1.028-1.027zM70.54 17.598c-.567 0-1.027.46-1.027 1.028 0 .568.46 1.028 1.028 1.028.57 0 1.03-.46 1.03-1.028 0-.568-.46-1.028-1.03-1.028zm13.296 10.405c-.603 0-1.092.49-1.092 1.092 0 .603.49 1.092 1.092 1.092.603 0 1.092-.49 1.092-1.092 0-.604-.49-1.092-1.092-1.092zm4.88 5.78c-.602 0-1.09.49-1.09 1.092s.488 1.092 1.09 1.092c.604 0 1.093-.49 1.093-1.092s-.49-1.092-1.093-1.092zM54.87 25.048c.922 0 1.67-.748 1.67-1.67s-.748-1.67-1.67-1.67-1.67.748-1.67 1.67.748 1.67 1.67 1.67zm5.267 4.24c-.497 0-.9.402-.9.898 0 .497.404.9.9.9s.9-.404.9-.9-.404-.9-.9-.9zm-1.285 8.99c0-.496-.403-.898-.9-.898-.496 0-.898.403-.898.9s.403.898.9.898c.496 0 .898-.403.898-.9zm-8.606 7.13c0-.887-.748-1.606-1.67-1.606-.922 0-1.67.72-1.67 1.606s.748 1.606 1.67 1.606c.922 0 1.67-.72 1.67-1.606zm-1.927 1.99c-.356 0-.643.29-.643.643 0 .356.288.643.642.643.354 0 .64-.288.64-.642.002-.354-.286-.64-.64-.64zm-3.597-5.394c.355 0 .642-.288.642-.642 0-.355-.288-.642-.642-.642-.355 0-.642.288-.642.642 0 .354.288.642.643.642zm27.874-21.452c-.426 0-.77.345-.77.77s.344.772.77.772.77-.345.77-.77-.345-.772-.77-.772zM51.53 55.106c-.567 0-1.027.46-1.027 1.028 0 .568.46 1.028 1.028 1.028.57 0 1.03-.46 1.03-1.028-.002-.568-.462-1.028-1.03-1.028zm1.927 1.54c-.355 0-.642.29-.642.643 0 .354.288.64.642.64.355 0 .642-.287.642-.64 0-.355-.288-.643-.643-.643zm-.257-6.55c0 .355.288.642.642.642.355 0 .642-.288.642-.642 0-.355-.288-.642-.642-.642-.354 0-.642.288-.642.642zM64.12 19.91c-.356 0-.643.288-.643.642 0 .355.288.642.642.642.354 0 .64-.288.64-.642 0-.354-.286-.642-.64-.642zm1.54-4.496c-.355 0-.642.288-.642.642 0 .355.288.642.642.642.355 0 .642-.288.642-.642 0-.354-.287-.642-.642-.642zm-3.532 4.753c-.532 0-.963.43-.963.963s.43.963.963.963c.532 0 .963-.43.963-.963s-.43-.963-.962-.963zm12.91 3.468c-.356 0-.643.288-.643.642 0 .355.288.642.642.642s.642-.29.642-.643c0-.354-.288-.642-.643-.642zm-8.607-11.56c-.78 0-1.412.633-1.412 1.413S65.65 14.9 66.43 14.9s1.414-.632 1.414-1.412c0-.78-.633-1.413-1.413-1.413zM80.433 24.02c-.568 0-1.028.46-1.028 1.03 0 .567.46 1.027 1.028 1.027.568 0 1.028-.46 1.028-1.028 0-.57-.46-1.03-1.028-1.03zm4.817.643c-.675 0-1.22.546-1.22 1.22s.545 1.22 1.22 1.22c.673 0 1.22-.546 1.22-1.22s-.547-1.22-1.22-1.22zm14.835 6.166c0 .354.288.64.642.64.355 0 .642-.287.642-.64 0-.356-.29-.643-.643-.643-.354 0-.642.287-.642.642zm.77 2.182c0-.355-.287-.642-.64-.642-.356 0-.643.288-.643.642 0 .355.288.642.642.642.355 0 .642-.287.642-.642zm-1.54 4.24c-.355 0-.642.287-.642.64s.288.643.642.643c.355 0 .642-.288.642-.642s-.288-.642-.642-.642zm-.32-13.36c.815 0 1.476-.66 1.476-1.477 0-.816-.66-1.477-1.476-1.477s-1.477.66-1.477 1.477c0 .816.66 1.477 1.477 1.477zm5.586-1.156c0-.78-.632-1.413-1.412-1.413-.78 0-1.413.633-1.413 1.413s.633 1.413 1.413 1.413 1.413-.634 1.413-1.414zm8.286 3.468c-.674 0-1.22.546-1.22 1.22s.546 1.22 1.22 1.22 1.22-.546 1.22-1.22-.546-1.22-1.22-1.22zm-4.238.13c-.674 0-1.22.545-1.22 1.22s.546 1.22 1.22 1.22 1.22-.547 1.22-1.22-.547-1.22-1.22-1.22zm3.853 3.98c-.673 0-1.22.547-1.22 1.22 0 .675.547 1.22 1.22 1.22s1.22-.545 1.22-1.22c0-.673-.545-1.22-1.22-1.22zm8.03.13c-.57 0-1.03.46-1.03 1.027 0 .57.46 1.03 1.03 1.03.567 0 1.027-.46 1.027-1.03 0-.567-.46-1.027-1.028-1.027zm2.89 2.697c-.46 0-.835.375-.835.836s.374.835.835.835.835-.373.835-.834-.374-.835-.835-.835zm-67.117 4.625c0-3.05-2.473-5.523-5.523-5.523s-5.523 2.473-5.523 5.523 2.473 5.523 5.523 5.523 5.523-2.473 5.523-5.523zm42.004-3.982c0-2.057-1.668-3.725-3.725-3.725s-3.725 1.668-3.725 3.725 1.668 3.725 3.725 3.725 3.725-1.668 3.725-3.725zm.835-3.597c1.383 0 2.505-1.12 2.505-2.505 0-1.382-1.12-2.504-2.505-2.504s-2.505 1.12-2.505 2.505c0 1.385 1.122 2.506 2.505 2.506zM77.157 14.772c-1.03 0-1.863.834-1.863 1.863 0 1.03.834 1.863 1.863 1.863 1.03 0 1.863-.834 1.863-1.863 0-1.03-.835-1.863-1.863-1.863zm-17.47 6.808c-1.24 0-2.248 1.006-2.248 2.248 0 1.24 1.005 2.248 2.247 2.248s2.248-1.006 2.248-2.248c0-1.242-1.006-2.248-2.248-2.248zm-3.853 11.175c1.81 0 3.276-1.467 3.276-3.276s-1.466-3.277-3.276-3.277-3.276 1.466-3.276 3.276 1.467 3.275 3.276 3.275zm-3.66 17.727c0-.85-.69-1.54-1.542-1.54-.85 0-1.54.69-1.54 1.54s.69 1.54 1.54 1.54c.85 0 1.54-.69 1.54-1.54zm45.6-11.047c-.994 0-1.8.805-1.8 1.798s.806 1.798 1.8 1.798c.992 0 1.797-.804 1.797-1.797.002-.993-.803-1.798-1.797-1.798zm-58.96-7.964c-.993 0-1.798.806-1.798 1.8s.805 1.797 1.798 1.797 1.798-.805 1.798-1.798-.805-1.8-1.798-1.8zm-3.854 4.754c-.993 0-1.798.805-1.798 1.798s.805 1.798 1.798 1.798 1.798-.805 1.798-1.798-.805-1.798-1.798-1.798zm31.6-29.288c-1.207 0-2.185.978-2.185 2.184 0 1.206.978 2.184 2.184 2.184s2.183-.978 2.183-2.184c0-1.206-.978-2.184-2.184-2.184zm-7.772 13.616c1.03 0 1.863-.834 1.863-1.863 0-1.03-.833-1.864-1.862-1.864-1.03 0-1.863.834-1.863 1.863 0 1.028.834 1.862 1.863 1.862zm44.316-3.982c-1.03 0-1.863.834-1.863 1.863 0 1.03.835 1.863 1.864 1.863 1.03 0 1.863-.834 1.863-1.863 0-1.03-.834-1.863-1.863-1.863zm17.34 8.992c-.957 0-1.733.776-1.733 1.734s.777 1.734 1.735 1.734 1.734-.776 1.734-1.734-.777-1.734-1.735-1.734zM42.22 39.05c-.887 0-1.606.718-1.606 1.605s.72 1.606 1.606 1.606 1.606-.718 1.606-1.605-.72-1.606-1.606-1.606zm12.267 7.32c0-.992-.805-1.797-1.798-1.797s-1.798.805-1.798 1.798.804 1.8 1.797 1.8c.993 0 1.798-.806 1.798-1.8zm8.285-30.7c1.03 0 1.863-.833 1.863-1.862s-.834-1.863-1.863-1.863c-1.03 0-1.863.834-1.863 1.863s.834 1.863 1.863 1.863z" id="Ellipses"/></g><g id="Contour_1_"><path fill-rule="evenodd" clip-rule="evenodd" fill="#0894D8" d="M120.38 21.45l-3.21 3.47-14.002-13.616-12.203 14.258L78.12 9.377l-2.312 2.826L66.688 0 44.08 31.47l-5.395-5.394L24.3 44.958 38.684 29.03l4.753 4.88 23.25-30.056L74.78 14.9l2.313-2.697 12.973 15.8 13.102-13.488 13.488 12.845 3.725-3.982 17.342 17.855z" id="Shapes_1_"/></g></svg>