<svg xmlns="http://www.w3.org/2000/svg" width="32" height="50" viewBox="0 0 32 50"><path fill="#D84335" d="M2 14.57C2.015 4.084 12.436-2.85 21.83 1.6c8.452 4.002 10.508 13.063 5.41 21.557-4.683 7.8-9.338 15.65-9.973 25.073-.056.828-.25 1.53-1.248 1.54-.993.01-1.208-.665-1.282-1.505-.786-8.935-4.598-16.665-9.55-23.945-1.926-2.832-3.192-6.8-3.188-9.75zm13.826 5.55c3.407.07 5.896-2.29 5.945-5.638.05-3.273-2.314-5.797-5.51-5.89-3.426-.1-5.94 2.227-6.02 5.567-.08 3.47 2.188 5.89 5.586 5.96z"/><path fill="#912D25" d="M15.826 20.12c-3.4-.07-5.667-2.49-5.585-5.962.08-3.34 2.595-5.667 6.02-5.567 3.196.094 5.558 2.62 5.51 5.89-.047 3.35-2.536 5.71-5.944 5.64z"/></svg>