<svg xmlns="http://www.w3.org/2000/svg" width="478.119" height="60" viewBox="251.092 496.181 478.119 60" enable-background="new 251.092 496.181 478.119 60"><g transform="translate(-985.904 -3367.887)"><path d="M1249.415 3902.277l-12.117 19.772c-.68 1.11-.172 2.018 1.13 2.018h14.21c1.302 0 2.93-.906 3.615-2.013l6.416-10.365-13.255-9.413zm17.613-18.787l-10.774-17.406c-.686-1.107-2.312-2.014-3.615-2.014h-14.21c-1.304 0-1.812.91-1.13 2.02l13.795 22.51 7.755-10.92 8.178 5.81z" fill="none"/><linearGradient id="a" gradientUnits="userSpaceOnUse" x1="3797.808" y1="3464.018" x2="3813.295" y2="3473.696" gradientTransform="translate(-2553.789 443.162)"><stop offset=".54" stop-color="#0A985C"/><stop offset=".54" stop-color="#F6C25B"/></linearGradient><path fill="url(#a)" d="M1261.928 3907.385c-1.18-1.983-4.04-7.077-6.177-10.872l-2.41-4.248c.554 1.118.514 2.78-.123 3.82l-15.91 25.962c-.68 1.11-.173 2.02 1.13 2.02h14.208c1.303 0 2.93-.907 3.615-2.014l6.427-10.378c-.137.188.76-1.74-.76-4.29z"/><path d="M1249.422 3902.275l-12.116 19.773c-.68 1.11-.17 2.02 1.132 2.02h14.208c1.303 0 2.93-.907 3.615-2.014l6.42-10.366-13.258-9.413zm17.614-18.788l-10.776-17.406c-.683-1.107-2.31-2.012-3.613-2.012h-14.21c-1.303 0-1.81.91-1.13 2.02l13.796 22.513 7.757-10.92 8.176 5.807z" fill="none"/><path opacity=".09" fill="#010101" enable-background="new" d="M1272.34 3896.083c.687-1.108.687-2.922 0-4.03l-5.303-8.567-8.177-5.808-7.757 10.92 2.114 3.45c.68 1.11.68 2.927 0 4.037l-3.795 6.19 13.257 9.413 9.66-15.605z"/><linearGradient id="b" gradientUnits="userSpaceOnUse" x1="3802.276" y1="3445.828" x2="3818.159" y2="3435.902" gradientTransform="translate(-2553.789 443.162)"><stop offset=".57" stop-color="#5586C5"/><stop offset=".57" stop-color="#D9423E"/></linearGradient><path fill="url(#b)" d="M1272.336 3892.058l-16.076-25.973c-.685-1.108-2.313-2.014-3.615-2.014h-14.212c-1.302 0-1.81.91-1.13 2.02l15.91 25.962 2.537 4.462c2.138 3.794 4.998 8.888 6.177 10.872 1.775 2.985.247 5.115.935 4.006l9.474-15.304c.686-1.11.686-2.92 0-4.03zm-19.103.024l.057.094.004.007-.06-.1zm1.134 1.98l.168.295-.168-.296zm-.014-.037l.27.48-.27-.48z"/><path fill="#4E4E4E" d="M1306.167 3890.12h14.065v17.565c-3.82 1.308-8.017 1.96-12.594 1.96-5.023 0-8.905-1.455-11.646-4.367s-4.112-7.066-4.112-12.46c0-5.26 1.5-9.354 4.502-12.282 3-2.927 7.207-4.39 12.616-4.39 2.05 0 3.986.192 5.807.58s3.407.876 4.76 1.47l-2.787 6.91c-2.348-1.16-4.926-1.74-7.734-1.74-2.57 0-4.56.837-5.963 2.51-1.403 1.67-2.105 4.06-2.105 7.165 0 3.048.635 5.37 1.906 6.967s3.103 2.396 5.495 2.396c1.308 0 2.51-.126 3.61-.38v-5.103h-5.816v-6.8h-.003zm45.676 2.097c0 5.44-1.498 9.63-4.492 12.572s-7.202 4.412-12.626 4.412h-10.543v-32.588h11.28c5.23 0 9.27 1.337 12.114 4.012s4.27 6.538 4.27 11.59zm-9.14.312c0-2.988-.59-5.202-1.77-6.643s-2.977-2.162-5.384-2.162h-2.564v18.255h1.96c2.676 0 4.638-.776 5.886-2.33s1.87-3.926 1.87-7.12zm25.37-2.41h14.065v17.565c-3.82 1.308-8.018 1.96-12.594 1.96-5.022 0-8.904-1.455-11.646-4.367-2.74-2.912-4.112-7.066-4.112-12.46 0-5.26 1.5-9.354 4.503-12.282 3-2.927 7.206-4.39 12.614-4.39 2.05 0 3.986.192 5.807.58s3.407.876 4.76 1.47l-2.786 6.91c-2.348-1.16-4.926-1.74-7.734-1.74-2.57 0-4.56.837-5.963 2.51-1.403 1.67-2.105 4.06-2.105 7.165 0 3.048.635 5.37 1.905 6.967s3.102 2.396 5.494 2.396c1.31 0 2.512-.126 3.612-.38v-5.103h-5.817v-6.8z" enable-background="new"/></g><path d="M445.568 524.71c0 5.378-1.494 9.49-4.48 12.335-2.986 2.846-7.288 4.27-12.905 4.27h-9.116v-32.587h10.074c5.188 0 9.222 1.397 12.105 4.19s4.323 6.724 4.323 11.79zm-5.617.177c0-7.8-3.647-11.7-10.943-11.7h-4.613v23.647h3.79c7.844 0 11.767-3.982 11.767-11.947zm31.007 16.427h-5.26v-15.157c0-1.9-.383-3.32-1.148-4.257s-1.98-1.404-3.645-1.404c-2.215 0-3.834.654-4.86 1.96-1.024 1.31-1.537 3.5-1.537 6.577v12.28h-5.238v-24.65h4.102l.735 3.23h.268c.743-1.173 1.798-2.08 3.165-2.72 1.367-.638 2.883-.957 4.547-.957 5.914 0 8.87 3.01 8.87 9.027v16.07zm4.238-31.182c0-.937.256-1.657.77-2.162s1.244-.758 2.194-.758c.92 0 1.638.253 2.15.758s.77 1.226.77 2.162c0 .892-.257 1.593-.77 2.106-.513.512-1.23.77-2.15.77-.95 0-1.684-.258-2.196-.77-.513-.513-.77-1.215-.77-2.106zm5.55 31.182h-5.238v-24.652h5.238v24.652zm17.254.446c-3.122 0-5.544-1.12-7.268-3.365h-.312c.207 2.08.312 3.344.312 3.79v10.095h-5.238v-35.617h4.235c.118.46.363 1.56.734 3.3h.268c1.635-2.497 4.086-3.745 7.355-3.745 3.076 0 5.472 1.114 7.188 3.344 1.716 2.23 2.574 5.356 2.574 9.383 0 4.027-.874 7.17-2.62 9.428-1.744 2.258-4.155 3.387-7.23 3.387zm-1.27-21.264c-2.082 0-3.6.61-4.56 1.828-.958 1.22-1.438 3.164-1.438 5.84v.78c0 3 .476 5.175 1.427 6.52.95 1.345 2.503 2.017 4.657 2.017 1.813 0 3.21-.74 4.19-2.228s1.47-3.604 1.47-6.354c0-2.764-.485-4.854-1.46-6.273-.97-1.42-2.4-2.13-4.288-2.13zm26.972-4.28c1.055 0 1.924.075 2.607.224l-.514 4.88c-.743-.177-1.516-.267-2.318-.267-2.095 0-3.793.684-5.093 2.05s-1.95 3.144-1.95 5.33v12.882h-5.238v-24.652h4.102l.69 4.347h.267c.817-1.472 1.884-2.638 3.2-3.5 1.313-.862 2.73-1.293 4.245-1.293zm26.303 12.727c0 4.027-1.033 7.17-3.1 9.428-2.064 2.26-4.94 3.39-8.625 3.39-2.303 0-4.34-.52-6.106-1.56-1.77-1.04-3.13-2.534-4.08-4.48-.95-1.946-1.426-4.206-1.426-6.776 0-3.996 1.025-7.117 3.076-9.36 2.05-2.244 4.94-3.366 8.67-3.366 3.566 0 6.39 1.147 8.47 3.443s3.12 5.39 3.12 9.283zm-17.943 0c0 5.69 2.103 8.537 6.31 8.537 4.16 0 6.24-2.846 6.24-8.537 0-5.63-2.096-8.447-6.286-8.447-2.2 0-3.793.73-4.78 2.184-.99 1.457-1.484 3.545-1.484 6.263zm33.727 12.817c-3.122 0-5.544-1.12-7.268-3.365h-.312c.207 2.08.312 3.344.312 3.79v10.095h-5.238v-35.617h4.235c.118.46.363 1.56.734 3.3h.268c1.635-2.497 4.086-3.745 7.355-3.745 3.076 0 5.472 1.114 7.188 3.344 1.716 2.23 2.574 5.356 2.574 9.383 0 4.027-.874 7.17-2.62 9.428-1.745 2.258-4.156 3.387-7.23 3.387zm-1.272-21.264c-2.08 0-3.6.61-4.56 1.828-.957 1.22-1.437 3.164-1.437 5.84v.78c0 3 .477 5.175 1.428 6.52.95 1.345 2.504 2.017 4.658 2.017 1.813 0 3.21-.74 4.19-2.228s1.47-3.604 1.47-6.354c0-2.764-.485-4.854-1.46-6.273-.97-1.42-2.4-2.13-4.288-2.13zm25.233 21.264c-3.832 0-6.83-1.117-8.992-3.355-2.162-2.234-3.243-5.314-3.243-9.238 0-4.026 1.003-7.19 3.01-9.494 2.005-2.304 4.762-3.455 8.27-3.455 3.253 0 5.823.988 7.71 2.965 1.888 1.976 2.832 4.695 2.832 8.156v2.83H582.91c.073 2.394.72 4.23 1.938 5.517s2.935 1.928 5.148 1.928c1.456 0 2.813-.137 4.068-.412 1.255-.273 2.604-.73 4.045-1.37v4.257c-1.278.61-2.57 1.04-3.88 1.293s-2.8.377-4.48.377zm-.957-21.576c-1.664 0-2.998.527-4 1.583s-1.603 2.593-1.795 4.614h11.188c-.03-2.035-.52-3.577-1.47-4.624-.95-1.048-2.26-1.572-3.923-1.572zm22.938 17.34c1.278 0 2.557-.2 3.835-.6v3.944c-.58.252-1.326.463-2.24.635-.914.17-1.86.256-2.842.256-4.964 0-7.444-2.616-7.444-7.847V520.63h-3.367v-2.318l3.61-1.917 1.784-5.215h3.23v5.482h7.022v3.968h-7.022v13.194c0 1.264.315 2.195.947 2.8.632.6 1.46.9 2.486.9zm18.526-21.307c1.055 0 1.924.074 2.607.223l-.513 4.88c-.743-.177-1.516-.267-2.318-.267-2.095 0-3.793.684-5.093 2.05s-1.95 3.144-1.95 5.33v12.882h-5.24v-24.652h4.103l.69 4.347h.268c.818-1.472 1.885-2.638 3.2-3.5 1.315-.862 2.73-1.293 4.246-1.293zm26.304 12.726c0 4.027-1.033 7.17-3.1 9.428-2.064 2.26-4.94 3.39-8.625 3.39-2.303 0-4.34-.52-6.106-1.56-1.77-1.04-3.13-2.534-4.08-4.48-.95-1.946-1.427-4.206-1.427-6.776 0-3.996 1.025-7.117 3.076-9.36 2.05-2.244 4.94-3.366 8.67-3.366 3.565 0 6.39 1.147 8.47 3.443s3.12 5.39 3.12 9.283zm-17.943 0c0 5.69 2.103 8.537 6.31 8.537 4.16 0 6.24-2.846 6.24-8.537 0-5.63-2.096-8.447-6.286-8.447-2.198 0-3.792.73-4.78 2.184-.99 1.457-1.483 3.545-1.483 6.263zm26.84 12.37l-9.362-24.65h5.527l5.016 14.33c.86 2.41 1.382 4.355 1.56 5.84h.18c.133-1.07.652-3.015 1.56-5.84l5.015-14.33h5.572l-9.406 24.65h-5.664zm32.632-7.02c0 2.406-.878 4.254-2.632 5.54-1.753 1.284-4.265 1.927-7.533 1.927-3.284 0-5.922-.498-7.913-1.494v-4.523c2.898 1.336 5.595 2.006 8.09 2.006 3.226 0 4.838-.974 4.838-2.92 0-.626-.178-1.146-.535-1.562-.356-.416-.943-.848-1.76-1.293s-1.955-.95-3.41-1.516c-2.84-1.1-4.76-2.2-5.763-3.3s-1.504-2.525-1.504-4.28c0-2.108.85-3.747 2.552-4.913 1.7-1.167 4.016-1.75 6.943-1.75 2.897 0 5.64.587 8.225 1.76l-1.694 3.945c-2.66-1.1-4.896-1.648-6.71-1.648-2.763 0-4.145.787-4.145 2.362 0 .772.36 1.427 1.08 1.962s2.292 1.27 4.714 2.206c2.036.788 3.514 1.51 4.436 2.163.92.652 1.604 1.406 2.05 2.262.446.852.67 1.874.67 3.063zm7.112-25.565l.335.49c-.788 3.106-2.096 6.665-3.923 10.677h-3.79c1.025-4.295 1.77-8.017 2.23-11.167h5.148zm6.934 19.57l2.965-3.7 7.445-7.936h6.04l-9.918 10.588 10.543 14.064h-6.152l-7.912-10.81-2.876 2.362v8.447h-5.193V506.63h5.193v16.918l-.267 4.747h.133z" fill="#4E4E4E"/></svg>