<svg xmlns="http://www.w3.org/2000/svg" width="246.261" height="60" viewBox="251.092 496.181 246.261 60" enable-background="new 251.092 496.181 246.261 60"><g transform="translate(-985.904 -3367.887)"><path d="M1249.415 3902.277l-12.117 19.772c-.68 1.11-.172 2.018 1.13 2.018h14.21c1.302 0 2.93-.906 3.615-2.013l6.416-10.365-13.255-9.413zm17.613-18.787l-10.774-17.406c-.686-1.107-2.312-2.014-3.615-2.014h-14.21c-1.304 0-1.812.91-1.13 2.02l13.795 22.51 7.755-10.92 8.178 5.81z" fill="none"/><linearGradient id="a" gradientUnits="userSpaceOnUse" x1="3797.808" y1="3464.018" x2="3813.295" y2="3473.696" gradientTransform="translate(-2553.789 443.162)"><stop offset=".54" stop-color="#0A985C"/><stop offset=".54" stop-color="#F6C25B"/></linearGradient><path fill="url(#a)" d="M1261.928 3907.385c-1.18-1.983-4.04-7.077-6.177-10.872l-2.41-4.248c.554 1.118.514 2.78-.123 3.82l-15.91 25.962c-.68 1.11-.173 2.02 1.13 2.02h14.208c1.303 0 2.93-.907 3.615-2.014l6.427-10.378c-.137.188.76-1.74-.76-4.29z"/><path d="M1249.422 3902.275l-12.116 19.773c-.68 1.11-.17 2.02 1.132 2.02h14.208c1.303 0 2.93-.907 3.615-2.014l6.42-10.366-13.258-9.413zm17.614-18.788l-10.776-17.406c-.683-1.107-2.31-2.012-3.613-2.012h-14.21c-1.303 0-1.81.91-1.13 2.02l13.796 22.513 7.757-10.92 8.176 5.807z" fill="none"/><path opacity=".09" fill="#010101" enable-background="new" d="M1272.34 3896.083c.687-1.108.687-2.922 0-4.03l-5.303-8.567-8.177-5.808-7.757 10.92 2.114 3.45c.68 1.11.68 2.927 0 4.037l-3.795 6.19 13.257 9.413 9.66-15.605z"/><linearGradient id="b" gradientUnits="userSpaceOnUse" x1="3802.276" y1="3445.828" x2="3818.159" y2="3435.902" gradientTransform="translate(-2553.789 443.162)"><stop offset=".57" stop-color="#5586C5"/><stop offset=".57" stop-color="#D9423E"/></linearGradient><path fill="url(#b)" d="M1272.336 3892.058l-16.076-25.973c-.685-1.108-2.313-2.014-3.615-2.014h-14.212c-1.302 0-1.81.91-1.13 2.02l15.91 25.962 2.537 4.462c2.138 3.794 4.998 8.888 6.177 10.872 1.775 2.985.247 5.115.935 4.006l9.474-15.304c.686-1.11.686-2.92 0-4.03zm-19.103.024l.057.094.004.007-.06-.1zm1.134 1.98l.168.295-.168-.296zm-.014-.037l.27.48-.27-.48z"/><path fill="#4E4E4E" d="M1306.167 3890.12h14.065v17.565c-3.82 1.308-8.017 1.96-12.594 1.96-5.023 0-8.905-1.455-11.646-4.367s-4.112-7.066-4.112-12.46c0-5.26 1.5-9.354 4.502-12.282 3-2.927 7.207-4.39 12.616-4.39 2.05 0 3.986.192 5.807.58s3.407.876 4.76 1.47l-2.787 6.91c-2.348-1.16-4.926-1.74-7.734-1.74-2.57 0-4.56.837-5.963 2.51-1.403 1.67-2.105 4.06-2.105 7.165 0 3.048.635 5.37 1.906 6.967s3.103 2.396 5.495 2.396c1.308 0 2.51-.126 3.61-.38v-5.103h-5.816v-6.8h-.003zm45.676 2.097c0 5.44-1.498 9.63-4.492 12.572s-7.202 4.412-12.626 4.412h-10.543v-32.588h11.28c5.23 0 9.27 1.337 12.114 4.012s4.27 6.538 4.27 11.59zm-9.14.312c0-2.988-.59-5.202-1.77-6.643s-2.977-2.162-5.384-2.162h-2.564v18.255h1.96c2.676 0 4.638-.776 5.886-2.33s1.87-3.926 1.87-7.12zm25.37-2.41h14.065v17.565c-3.82 1.308-8.018 1.96-12.594 1.96-5.022 0-8.904-1.455-11.646-4.367-2.74-2.912-4.112-7.066-4.112-12.46 0-5.26 1.5-9.354 4.503-12.282 3-2.927 7.206-4.39 12.614-4.39 2.05 0 3.986.192 5.807.58s3.407.876 4.76 1.47l-2.786 6.91c-2.348-1.16-4.926-1.74-7.734-1.74-2.57 0-4.56.837-5.963 2.51-1.403 1.67-2.105 4.06-2.105 7.165 0 3.048.635 5.37 1.905 6.967s3.102 2.396 5.494 2.396c1.31 0 2.512-.126 3.612-.38v-5.103h-5.817v-6.8z" enable-background="new"/></g><path d="M443.94 541.314h-6.174l-10.23-14.756-3.143 2.563v12.194h-5.327v-32.587h5.327v15.558c1.456-1.783 2.905-3.5 4.347-5.148l8.804-10.41h6.063c-5.69 6.688-9.77 11.45-12.236 14.288l12.57 18.3zm-2.738-24.652h5.706l5.015 13.975c.758 1.992 1.263 3.865 1.516 5.617h.178c.134-.816.38-1.81.735-2.975s2.243-6.706 5.66-16.618h5.663l-10.543 27.928c-1.917 5.127-5.112 7.69-9.584 7.69-1.16 0-2.29-.126-3.39-.38v-4.145c.788.178 1.687.268 2.697.268 2.526 0 4.302-1.465 5.327-4.39l.914-2.32-9.896-24.65zm25.167-6.53c0-.937.255-1.657.768-2.162s1.245-.758 2.195-.758c.922 0 1.64.253 2.15.758s.77 1.226.77 2.162c0 .892-.256 1.593-.77 2.106-.512.512-1.228.77-2.15.77-.95 0-1.683-.258-2.195-.77-.514-.513-.77-1.215-.77-2.106zm5.548 31.182h-5.238v-24.652h5.238v24.652zm10.368 0l-9.36-24.652h5.526l5.016 14.332c.86 2.408 1.382 4.354 1.56 5.84h.18c.133-1.07.652-3.016 1.56-5.84l5.015-14.332h5.572l-9.406 24.652h-5.664z" fill="#4E4E4E"/></svg>