<svg xmlns="http://www.w3.org/2000/svg" width="347.664" height="60" viewBox="251.092 496.181 347.664 60" enable-background="new 251.092 496.181 347.664 60"><g transform="translate(-985.904 -3367.887)"><path d="M1249.415 3902.277l-12.117 19.772c-.68 1.11-.172 2.018 1.13 2.018h14.21c1.302 0 2.93-.906 3.615-2.013l6.416-10.365-13.255-9.413zm17.613-18.787l-10.774-17.406c-.686-1.107-2.312-2.014-3.615-2.014h-14.21c-1.304 0-1.812.91-1.13 2.02l13.795 22.51 7.755-10.92 8.178 5.81z" fill="none"/><linearGradient id="a" gradientUnits="userSpaceOnUse" x1="3797.808" y1="3464.018" x2="3813.295" y2="3473.696" gradientTransform="translate(-2553.789 443.162)"><stop offset=".54" stop-color="#0A985C"/><stop offset=".54" stop-color="#F6C25B"/></linearGradient><path fill="url(#a)" d="M1261.928 3907.385c-1.18-1.983-4.04-7.077-6.177-10.872l-2.41-4.248c.554 1.118.514 2.78-.123 3.82l-15.91 25.962c-.68 1.11-.173 2.02 1.13 2.02h14.208c1.303 0 2.93-.907 3.615-2.014l6.427-10.378c-.137.188.76-1.74-.76-4.29z"/><path d="M1249.422 3902.275l-12.116 19.773c-.68 1.11-.17 2.02 1.132 2.02h14.208c1.303 0 2.93-.907 3.615-2.014l6.42-10.366-13.258-9.413zm17.614-18.788l-10.776-17.406c-.683-1.107-2.31-2.012-3.613-2.012h-14.21c-1.303 0-1.81.91-1.13 2.02l13.796 22.513 7.757-10.92 8.176 5.807z" fill="none"/><path opacity=".09" fill="#010101" enable-background="new" d="M1272.34 3896.083c.687-1.108.687-2.922 0-4.03l-5.303-8.567-8.177-5.808-7.757 10.92 2.114 3.45c.68 1.11.68 2.927 0 4.037l-3.795 6.19 13.257 9.413 9.66-15.605z"/><linearGradient id="b" gradientUnits="userSpaceOnUse" x1="3802.276" y1="3445.828" x2="3818.159" y2="3435.902" gradientTransform="translate(-2553.789 443.162)"><stop offset=".57" stop-color="#5586C5"/><stop offset=".57" stop-color="#D9423E"/></linearGradient><path fill="url(#b)" d="M1272.336 3892.058l-16.076-25.973c-.685-1.108-2.313-2.014-3.615-2.014h-14.212c-1.302 0-1.81.91-1.13 2.02l15.91 25.962 2.537 4.462c2.138 3.794 4.998 8.888 6.177 10.872 1.775 2.985.247 5.115.935 4.006l9.474-15.304c.686-1.11.686-2.92 0-4.03zm-19.103.024l.057.094.004.007-.06-.1zm1.134 1.98l.168.295-.168-.296zm-.014-.037l.27.48-.27-.48z"/><path fill="#4E4E4E" d="M1306.167 3890.12h14.065v17.565c-3.82 1.308-8.017 1.96-12.594 1.96-5.023 0-8.905-1.455-11.646-4.367s-4.112-7.066-4.112-12.46c0-5.26 1.5-9.354 4.502-12.282 3-2.927 7.207-4.39 12.616-4.39 2.05 0 3.986.192 5.807.58s3.407.876 4.76 1.47l-2.787 6.91c-2.348-1.16-4.926-1.74-7.734-1.74-2.57 0-4.56.837-5.963 2.51-1.403 1.67-2.105 4.06-2.105 7.165 0 3.048.635 5.37 1.906 6.967s3.103 2.396 5.495 2.396c1.308 0 2.51-.126 3.61-.38v-5.103h-5.816v-6.8h-.003zm45.676 2.097c0 5.44-1.498 9.63-4.492 12.572s-7.202 4.412-12.626 4.412h-10.543v-32.588h11.28c5.23 0 9.27 1.337 12.114 4.012s4.27 6.538 4.27 11.59zm-9.14.312c0-2.988-.59-5.202-1.77-6.643s-2.977-2.162-5.384-2.162h-2.564v18.255h1.96c2.676 0 4.638-.776 5.886-2.33s1.87-3.926 1.87-7.12zm25.37-2.41h14.065v17.565c-3.82 1.308-8.018 1.96-12.594 1.96-5.022 0-8.904-1.455-11.646-4.367-2.74-2.912-4.112-7.066-4.112-12.46 0-5.26 1.5-9.354 4.503-12.282 3-2.927 7.206-4.39 12.614-4.39 2.05 0 3.986.192 5.807.58s3.407.876 4.76 1.47l-2.786 6.91c-2.348-1.16-4.926-1.74-7.734-1.74-2.57 0-4.56.837-5.963 2.51-1.403 1.67-2.105 4.06-2.105 7.165 0 3.048.635 5.37 1.905 6.967s3.102 2.396 5.494 2.396c1.31 0 2.512-.126 3.612-.38v-5.103h-5.817v-6.8z" enable-background="new"/></g><path d="M432.93 512.828c-3.062 0-5.47 1.086-7.222 3.255-1.754 2.17-2.63 5.163-2.63 8.982 0 3.997.843 7.02 2.53 9.07s4.126 3.077 7.32 3.077c1.383 0 2.72-.137 4.013-.412s2.64-.627 4.035-1.06v4.57c-2.556.966-5.453 1.448-8.692 1.448-4.77 0-8.434-1.445-10.99-4.336-2.555-2.89-3.832-7.023-3.832-12.403 0-3.39.62-6.354 1.86-8.895 1.242-2.54 3.036-4.486 5.384-5.84 2.348-1.352 5.104-2.027 8.27-2.027 3.328 0 6.404.698 9.228 2.095l-1.917 4.436c-1.1-.522-2.262-.98-3.488-1.37-1.226-.395-2.515-.592-3.868-.592zm33.458 28.486h-5.26v-15.157c0-1.9-.383-3.32-1.148-4.257s-1.98-1.404-3.644-1.404c-2.2 0-3.815.658-4.85 1.973-1.03 1.313-1.548 3.517-1.548 6.608v12.236H444.7v-34.682h5.238v8.804c0 1.41-.09 2.92-.268 4.524h.335c.713-1.188 1.705-2.11 2.976-2.764 1.27-.654 2.753-.98 4.447-.98 5.974 0 8.96 3.01 8.96 9.027v16.07zm15.315.446c-3.833 0-6.83-1.117-8.993-3.355-2.162-2.234-3.243-5.314-3.243-9.238 0-4.026 1.003-7.19 3.01-9.494 2.005-2.304 4.762-3.455 8.27-3.455 3.253 0 5.823.988 7.71 2.965 1.888 1.976 2.832 4.695 2.832 8.156v2.83h-16.43c.074 2.394.72 4.23 1.94 5.517s2.934 1.928 5.147 1.928c1.456 0 2.813-.137 4.068-.412 1.255-.273 2.604-.73 4.045-1.37v4.257c-1.277.61-2.57 1.04-3.878 1.293s-2.8.377-4.48.377zm-.958-21.576c-1.664 0-2.998.527-4 1.583s-1.603 2.593-1.795 4.614h11.188c-.03-2.035-.52-3.577-1.47-4.624-.952-1.048-2.26-1.572-3.923-1.572zm26.26-3.967c1.054 0 1.923.074 2.606.223l-.512 4.88c-.743-.177-1.516-.267-2.318-.267-2.095 0-3.793.684-5.093 2.05s-1.95 3.144-1.95 5.33v12.882H494.5v-24.652h4.1l.692 4.347h.267c.816-1.472 1.883-2.638 3.198-3.5 1.315-.862 2.73-1.293 4.246-1.293zm9.496 12.08l2.966-3.7 7.444-7.935h6.04l-9.918 10.588 10.543 14.064h-6.152l-7.912-10.81-2.875 2.362v8.447h-5.193V506.63h5.193v16.918l-.267 4.747h.133zm33.728 13.017l-1.048-3.434H549c-1.187 1.502-2.384 2.523-3.587 3.064-1.204.543-2.75.814-4.637.814-2.422 0-4.313-.654-5.672-1.96-1.36-1.31-2.04-3.16-2.04-5.552 0-2.54.943-4.457 2.83-5.75 1.888-1.293 4.763-1.998 8.627-2.117l4.258-.136v-1.314c0-1.574-.368-2.753-1.104-3.533-.735-.78-1.876-1.17-3.42-1.17-1.265 0-2.476.186-3.635.557-1.16.372-2.274.81-3.344 1.316l-1.694-3.745c1.338-.698 2.8-1.23 4.392-1.594 1.59-.363 3.09-.545 4.502-.545 3.135 0 5.502.684 7.1 2.05 1.597 1.368 2.395 3.515 2.395 6.442v16.605h-3.742zm-7.802-3.566c1.902 0 3.43-.53 4.58-1.594 1.152-1.063 1.728-2.553 1.728-4.47v-2.14l-3.165.135c-2.468.087-4.262.5-5.384 1.235s-1.683 1.86-1.683 3.377c0 1.1.327 1.95.98 2.553.655.602 1.636.903 2.943.903zm32.68-3.455c0 2.406-.878 4.254-2.632 5.54-1.753 1.284-4.265 1.927-7.533 1.927-3.283 0-5.92-.498-7.912-1.494v-4.523c2.898 1.336 5.595 2.006 8.09 2.006 3.226 0 4.838-.974 4.838-2.92 0-.626-.178-1.146-.535-1.562-.355-.416-.942-.848-1.76-1.293s-1.954-.95-3.41-1.516c-2.838-1.1-4.76-2.2-5.762-3.3s-1.504-2.525-1.504-4.28c0-2.108.85-3.747 2.552-4.913 1.7-1.167 4.016-1.75 6.943-1.75 2.896 0 5.638.587 8.224 1.76l-1.694 3.945c-2.66-1.1-4.896-1.648-6.71-1.648-2.763 0-4.145.787-4.145 2.362 0 .772.36 1.427 1.08 1.962s2.293 1.27 4.715 2.206c2.036.788 3.514 1.51 4.436 2.163.92.652 1.604 1.406 2.05 2.262.445.852.67 1.874.67 3.063zm-.823-17.63h5.706l5.014 13.974c.758 1.992 1.263 3.865 1.516 5.617h.18c.133-.816.378-1.81.734-2.975s2.243-6.706 5.66-16.618h5.663l-10.543 27.928c-1.917 5.127-5.112 7.69-9.584 7.69-1.16 0-2.29-.126-3.39-.38v-4.145c.79.178 1.688.268 2.698.268 2.526 0 4.302-1.465 5.327-4.39l.914-2.32-9.897-24.65z" fill="#4E4E4E"/></svg>