<svg xmlns="http://www.w3.org/2000/svg" width="185" height="188" viewBox="0 0 185 188"><g fill="#4E4E4E"><path d="M115.912 17.967c0 2.676-.73 4.738-2.193 6.186-1.463 1.448-3.52 2.17-6.167 2.17h-5.148V10.29h5.507c2.554 0 4.526.658 5.916 1.974 1.39 1.316 2.084 3.217 2.084 5.703zm-4.462.154c0-1.468-.29-2.558-.866-3.267-.577-.71-1.453-1.064-2.628-1.064h-1.25v8.98h.957c1.306 0 2.264-.38 2.874-1.145s.913-1.932.913-3.504zM123.13 26.544c-2.054 0-3.647-.55-4.784-1.65-1.136-1.1-1.704-2.667-1.704-4.7 0-2.1.526-3.71 1.578-4.832 1.053-1.122 2.555-1.684 4.506-1.684 1.857 0 3.293.488 4.305 1.464s1.52 2.382 1.52 4.217v1.907h-7.608c.03.695.28 1.24.758 1.634.475.396 1.12.593 1.94.593.75 0 1.437-.07 2.064-.214.63-.144 1.31-.387 2.04-.73v3.082c-.667.344-1.356.58-2.067.713-.712.133-1.56.2-2.548.2zm-.25-9.948c-.5 0-.92.16-1.257.477-.338.318-.537.817-.594 1.497h3.655c-.014-.6-.184-1.078-.506-1.437s-.756-.537-1.3-.537zM132.85 26.325l-4.7-12.426h4.44l2.09 7.347c.007.037.02.1.043.187s.043.192.065.313c.02.12.04.25.06.384.018.137.027.263.027.38h.076c0-.38.066-.794.196-1.24l2.188-7.37h4.43l-4.702 12.426h-4.21zM146.38 26.325h-4.233V10.29h9.404v3.477h-5.17v3.06h4.768v3.477h-4.767v6.02zM158.528 26.544c-2.054 0-3.647-.55-4.783-1.65s-1.703-2.667-1.703-4.7c0-2.1.525-3.71 1.578-4.832 1.052-1.122 2.554-1.684 4.506-1.684 1.857 0 3.292.488 4.305 1.464s1.52 2.382 1.52 4.217v1.907h-7.608c.03.695.28 1.24.757 1.634.474.396 1.12.593 1.94.593.748 0 1.436-.07 2.064-.214s1.308-.387 2.04-.73v3.082c-.667.344-1.356.58-2.067.713-.713.133-1.56.2-2.55.2zm-.25-9.948c-.5 0-.92.16-1.257.477-.337.318-.535.817-.593 1.497h3.657c-.015-.6-.184-1.078-.506-1.437-.322-.358-.756-.537-1.3-.537zM174.54 22.508c0 1.33-.45 2.336-1.35 3.016-.9.68-2.19 1.02-3.874 1.02-.914 0-1.71-.05-2.384-.148s-1.364-.28-2.067-.543V22.42c.66.292 1.384.534 2.17.724.788.19 1.49.285 2.107.285.92 0 1.382-.213 1.382-.637 0-.22-.13-.415-.386-.586-.258-.172-1.007-.506-2.248-1.004-1.132-.468-1.923-1-2.373-1.596-.45-.596-.675-1.35-.675-2.265 0-1.155.442-2.055 1.328-2.698.885-.644 2.137-.965 3.755-.965.813 0 1.576.09 2.29.268s1.458.44 2.228.784l-1.154 2.764c-.566-.256-1.165-.473-1.797-.652-.63-.18-1.146-.27-1.546-.27-.696 0-1.044.173-1.044.517 0 .213.12.394.364.544s.945.455 2.106.916c.863.358 1.507.71 1.932 1.053s.736.748.936 1.212c.2.463.3 1.028.3 1.693zM181.605 23.155c.573 0 1.26-.143 2.058-.428v3.126c-.573.25-1.12.426-1.64.532-.518.105-1.125.16-1.82.16-1.43 0-2.46-.354-3.093-1.06-.63-.705-.946-1.79-.946-3.25V17.11h-1.49v-1.744l1.893-1.35 1.1-2.61h2.786v2.49h3.025v3.214h-3.025v4.837c0 .803.384 1.205 1.152 1.205z"/></g><g fill="#4E4E4E"><path d="M60.282 47.886h-10.25v-1.84l3.9-3.92c1.15-1.18 1.914-2.017 2.29-2.51.376-.493.65-.957.822-1.39s.26-.9.26-1.397c0-.684-.206-1.222-.617-1.615-.41-.393-.978-.59-1.702-.59-.58 0-1.14.107-1.68.32-.543.215-1.168.6-1.878 1.16L50.114 34.5c.84-.71 1.66-1.214 2.452-1.51s1.638-.445 2.535-.445c1.408 0 2.535.367 3.383 1.102s1.272 1.723 1.272 2.964c0 .684-.123 1.332-.367 1.946-.245.614-.62 1.247-1.127 1.898-.506.652-1.35 1.533-2.528 2.643l-2.627 2.545v.104h7.18v2.14zM71.104 40.324c0 2.628-.422 4.58-1.267 5.855-.845 1.275-2.136 1.913-3.874 1.913-1.683 0-2.958-.66-3.827-1.976-.87-1.317-1.304-3.248-1.304-5.793 0-2.668.422-4.636 1.268-5.9.844-1.266 2.132-1.9 3.863-1.9 1.69 0 2.97.663 3.838 1.987.87 1.324 1.304 3.262 1.304 5.814zm-7.81 0c0 2.063.21 3.535.635 4.417.423.884 1.1 1.325 2.032 1.325.93 0 1.612-.448 2.043-1.345.43-.896.646-2.362.646-4.396 0-2.027-.214-3.495-.645-4.4-.43-.908-1.112-1.36-2.043-1.36-.93 0-1.608.444-2.033 1.333-.424.89-.637 2.365-.637 4.427zM78.812 47.886h-2.43V38.12c0-1.165.026-2.088.082-2.77-.16.165-.354.348-.584.547-.23.2-1.005.834-2.323 1.903l-1.22-1.54 4.448-3.498h2.028v15.124zM93.285 44.586h-2.038v3.3h-2.37v-3.3h-6.91v-1.873l6.91-9.993h2.37v9.848h2.038v2.018zm-4.407-2.017v-3.797c0-1.352.035-2.458.104-3.32H88.9c-.194.454-.497 1.006-.91 1.654l-3.756 5.462h4.644zM107.335 43.78c0 1.344-.486 2.4-1.458 3.165-.973.766-2.314 1.148-4.024 1.148s-3.11-.266-4.2-.797V44.96c.69.323 1.422.578 2.198.764.777.187 1.5.28 2.168.28.98 0 1.702-.187 2.167-.56.465-.372.698-.872.698-1.5 0-.565-.214-1.044-.64-1.438-.43-.393-1.312-.86-2.65-1.396-1.378-.56-2.35-1.197-2.916-1.914-.565-.717-.848-1.58-.848-2.586 0-1.262.447-2.255 1.344-2.98s2.1-1.085 3.61-1.085c1.448 0 2.89.317 4.324.952l-.786 2.017c-1.345-.565-2.545-.848-3.6-.848-.8 0-1.407.174-1.82.522-.414.348-.62.81-.62 1.38 0 .394.082.73.247 1.01s.437.543.816.79c.38.25 1.062.577 2.048.984 1.11.462 1.924.893 2.44 1.293.518.4.897.852 1.14 1.355.24.503.36 1.096.36 1.78zM113.73 48.093c-1.78 0-3.172-.52-4.175-1.557-1.003-1.038-1.505-2.467-1.505-4.288 0-1.87.465-3.338 1.396-4.407s2.21-1.603 3.838-1.603c1.51 0 2.703.46 3.58 1.376.874.917 1.312 2.18 1.312 3.786v1.312h-7.624c.034 1.11.334 1.964.9 2.56.565.597 1.362.896 2.39.896.676 0 1.305-.063 1.888-.19.583-.128 1.208-.34 1.877-.637v1.977c-.593.283-1.193.483-1.8.6s-1.298.176-2.078.176zm-.445-10.014c-.772 0-1.392.244-1.857.733-.465.49-.743 1.204-.833 2.142h5.193c-.014-.945-.242-1.66-.683-2.146s-1.048-.73-1.82-.73zM126.826 47.886l-.486-1.593h-.082c-.553.697-1.107 1.17-1.666 1.422-.56.252-1.275.378-2.152.378-1.123 0-2-.304-2.63-.91-.634-.607-.948-1.466-.948-2.577 0-1.18.438-2.07 1.314-2.67.875-.6 2.21-.926 4.002-.98l1.977-.063v-.61c0-.73-.172-1.278-.512-1.64-.342-.362-.87-.543-1.588-.543-.586 0-1.148.086-1.688.258-.537.172-1.055.376-1.55.61l-.788-1.738c.62-.324 1.3-.57 2.038-.74.738-.17 1.434-.253 2.09-.253 1.455 0 2.553.317 3.295.952.74.634 1.11 1.63 1.11 2.99v7.706h-1.737zm-3.62-1.656c.882 0 1.59-.246 2.126-.74.533-.492.8-1.184.8-2.073v-.993l-1.468.062c-1.145.042-1.977.233-2.498.574s-.78.864-.78 1.567c0 .51.15.905.454 1.184.305.28.76.42 1.365.42zM138.372 44.627c0 1.117-.407 1.974-1.22 2.57-.814.597-1.98.895-3.497.895-1.524 0-2.75-.23-3.673-.693v-2.1c1.345.62 2.597.93 3.755.93 1.497 0 2.245-.452 2.245-1.355 0-.29-.083-.53-.248-.724-.166-.192-.438-.392-.817-.6-.38-.206-.907-.44-1.583-.702-1.317-.51-2.208-1.02-2.674-1.53-.466-.51-.698-1.173-.698-1.987 0-.978.395-1.74 1.185-2.28.79-.54 1.863-.812 3.223-.812 1.345 0 2.617.272 3.816.817l-.786 1.83c-1.234-.51-2.272-.765-3.113-.765-1.283 0-1.924.366-1.924 1.097 0 .358.167.662.5.91.336.248 1.065.59 2.19 1.024.943.367 1.63.7 2.058 1.004.428.304.745.654.952 1.05s.31.872.31 1.423zM149.876 42.145c0 1.87-.48 3.328-1.438 4.376-.96 1.05-2.293 1.573-4.004 1.573-1.068 0-2.014-.242-2.834-.724-.82-.484-1.452-1.177-1.894-2.08-.44-.904-.662-1.952-.662-3.146 0-1.855.477-3.303 1.428-4.345.952-1.042 2.293-1.563 4.024-1.563 1.655 0 2.965.533 3.93 1.598s1.45 2.503 1.45 4.31zm-8.327 0c0 2.642.975 3.962 2.927 3.962 1.93 0 2.896-1.32 2.896-3.962 0-2.614-.973-3.92-2.918-3.92-1.02 0-1.76.338-2.22 1.014-.457.674-.686 1.642-.686 2.905zM161.463 47.886h-2.44v-7.034c0-.883-.18-1.542-.533-1.976-.355-.435-.92-.652-1.69-.652-1.028 0-1.78.304-2.256.91-.477.607-.714 1.624-.714 3.052v5.7h-2.43v-11.44h1.902l.34 1.5h.125c.345-.546.835-.966 1.47-1.263.634-.296 1.337-.445 2.11-.445 2.744 0 4.116 1.396 4.116 4.19v7.458z"/></g><g fill="#4E4E4E"><path d="M55.57 17.313h6.923v8.644c-1.88.644-3.945.965-6.198.965-2.472 0-4.382-.716-5.73-2.15-1.35-1.433-2.025-3.477-2.025-6.132 0-2.59.74-4.603 2.216-6.044 1.477-1.44 3.547-2.16 6.208-2.16 1.01 0 1.962.094 2.858.284.896.19 1.676.432 2.342.724l-1.37 3.4c-1.157-.57-2.425-.855-3.808-.855-1.265 0-2.243.41-2.934 1.233-.69.823-1.037 2-1.037 3.527 0 1.5.313 2.642.938 3.428s1.526 1.18 2.704 1.18c.644 0 1.236-.063 1.777-.188v-2.512H55.57v-3.345zM78.026 18.344c0 2.676-.737 4.74-2.21 6.187s-3.545 2.173-6.214 2.173h-5.188V10.666h5.55c2.575 0 4.562.658 5.962 1.975s2.1 3.218 2.1 5.704zm-4.497.154c0-1.47-.292-2.56-.873-3.27-.582-.708-1.464-1.063-2.65-1.063h-1.26v8.983h.964c1.317 0 2.283-.382 2.897-1.146s.922-1.932.922-3.504zM85.99 17.313h6.923v8.644c-1.88.644-3.945.965-6.198.965-2.472 0-4.382-.716-5.73-2.15-1.35-1.433-2.025-3.477-2.025-6.132 0-2.59.74-4.603 2.216-6.044 1.477-1.44 3.547-2.16 6.208-2.16 1.01 0 1.962.094 2.858.284.896.19 1.676.432 2.342.724l-1.37 3.4c-1.157-.57-2.425-.855-3.808-.855-1.265 0-2.243.41-2.934 1.233-.69.823-1.037 2-1.037 3.527 0 1.5.313 2.642.938 3.428s1.526 1.18 2.704 1.18c.644 0 1.236-.063 1.777-.188v-2.512H85.99v-3.345z"/></g><radialGradient id="SVGID_1_" cx="-310.583" cy="-60.055" r="20.114" gradientTransform="matrix(.498 0 0 .498 172.289 79.739)" gradientUnits="userSpaceOnUse"><stop offset="0" stop-color="#FFCF4F"/><stop offset="1" stop-color="#F4C236"/></radialGradient><path fill="url(#SVGID_1_)" d="M8.91 61h6.79c1.608 0 3.605-1.128 4.433-2.51l5.72-9.52c.677-1.396.653-3.426-.12-4.713l-3.377-5.592L8.91 61z"/><radialGradient id="SVGID_2_" cx="-322.635" cy="-70.269" r="27.658" gradientTransform="matrix(.498 0 0 .498 172.289 79.739)" gradientUnits="userSpaceOnUse"><stop offset="0" stop-color="#08A960"/><stop offset="1" stop-color="#07914B"/></radialGradient><path fill="url(#SVGID_2_)" d="M16.21 33.514L1.107 58.764C.524 60.01 1.13 61 2.628 61H8.91l13.446-22.335-6.146-10.173c.83 1.378.83 3.638 0 5.022"/><radialGradient id="SVGID_3_" cx="-313.183" cy="-109.951" r="40.54" gradientTransform="matrix(.498 0 0 .498 172.289 79.739)" gradientUnits="userSpaceOnUse"><stop offset="0" stop-color="#567FC0"/><stop offset="1" stop-color="#557FC0"/></radialGradient><path fill="url(#SVGID_3_)" d="M2.63 1C1.014 1 .374 2.133 1.204 3.51l24.53 40.746c.77 1.288.794 3.317.118 4.713l5.963-9.926L8.914 1H2.63z"/><radialGradient id="SVGID_4_" cx="-301.119" cy="-119.916" r="33.058" gradientTransform="matrix(.498 0 0 .498 172.289 79.739)" gradientUnits="userSpaceOnUse"><stop offset="0" stop-color="#E14C40"/><stop offset="1" stop-color="#CD392D"/></radialGradient><path fill="url(#SVGID_4_)" d="M8.914 1l22.903 38.045 3.32-5.53c.83-1.385.83-3.645 0-5.023L20.134 3.512C19.305 2.13 17.308 1 15.7 1H8.915z"/><g fill="#4E4E4E"><path d="M115.912 80.967c0 2.677-.73 4.738-2.193 6.187-1.463 1.447-3.52 2.17-6.167 2.17h-5.148V73.29h5.507c2.554 0 4.526.657 5.916 1.974s2.084 3.217 2.084 5.703zm-4.462.153c0-1.47-.29-2.56-.866-3.268-.577-.71-1.453-1.064-2.628-1.064h-1.25v8.982h.957c1.306 0 2.264-.382 2.874-1.146.608-.764.913-1.932.913-3.504zM123.13 89.544c-2.054 0-3.647-.55-4.784-1.65-1.136-1.1-1.704-2.667-1.704-4.7 0-2.1.526-3.71 1.578-4.83 1.053-1.123 2.555-1.685 4.506-1.685 1.857 0 3.293.487 4.305 1.463 1.013.977 1.52 2.382 1.52 4.218v1.91h-7.608c.03.693.28 1.238.758 1.633.475.396 1.12.593 1.94.593.75 0 1.437-.07 2.064-.214.63-.143 1.31-.386 2.04-.73v3.083c-.667.344-1.356.58-2.067.713-.712.13-1.56.196-2.548.196zm-.25-9.948c-.5 0-.92.16-1.257.478-.338.318-.537.817-.594 1.497h3.655c-.014-.6-.184-1.077-.506-1.436s-.756-.538-1.3-.538zM132.85 89.324l-4.7-12.426h4.44l2.09 7.348c.007.037.02.1.043.187s.043.192.065.313c.02.12.04.25.06.384.018.136.027.262.027.38h.076c0-.38.066-.794.196-1.24l2.188-7.37h4.43l-4.702 12.426h-4.21zM146.38 89.324h-4.233V73.29h9.404v3.477h-5.17v3.06h4.768v3.477h-4.767v6.02zM158.528 89.544c-2.054 0-3.647-.55-4.783-1.65s-1.703-2.667-1.703-4.7c0-2.1.525-3.71 1.578-4.83 1.052-1.123 2.554-1.685 4.506-1.685 1.857 0 3.292.487 4.305 1.463 1.013.977 1.52 2.382 1.52 4.218v1.91h-7.608c.03.693.28 1.238.757 1.633.474.396 1.12.593 1.94.593.748 0 1.436-.07 2.064-.214s1.308-.386 2.04-.73v3.083c-.667.344-1.356.58-2.067.713-.713.13-1.56.196-2.55.196zm-.25-9.948c-.5 0-.92.16-1.257.478-.337.318-.535.817-.593 1.497h3.657c-.015-.6-.184-1.077-.506-1.436-.322-.36-.756-.538-1.3-.538zM174.54 85.508c0 1.33-.45 2.336-1.35 3.016-.9.68-2.19 1.02-3.874 1.02-.914 0-1.71-.05-2.384-.147s-1.364-.28-2.067-.543V85.42c.66.293 1.384.534 2.17.724.788.19 1.49.285 2.107.285.92 0 1.382-.213 1.382-.637 0-.22-.13-.415-.386-.587-.258-.172-1.007-.506-2.248-1.004-1.132-.468-1.923-1-2.373-1.596-.45-.596-.675-1.35-.675-2.265 0-1.154.442-2.054 1.328-2.697.885-.644 2.137-.965 3.755-.965.813 0 1.576.09 2.29.27.716.18 1.458.44 2.228.783l-1.154 2.765c-.566-.256-1.165-.473-1.797-.652-.63-.18-1.146-.27-1.546-.27-.696 0-1.044.173-1.044.517 0 .212.12.393.364.543.243.15.945.455 2.106.915.863.358 1.507.71 1.932 1.054s.736.747.936 1.212c.2.463.3 1.03.3 1.694zM181.605 86.154c.573 0 1.26-.143 2.058-.428v3.126c-.573.25-1.12.427-1.64.532-.518.105-1.125.16-1.82.16-1.43 0-2.46-.354-3.093-1.06-.63-.705-.946-1.79-.946-3.252V80.11h-1.49v-1.743l1.893-1.35 1.1-2.61h2.786v2.49h3.025v3.213h-3.025v4.837c0 .806.384 1.207 1.152 1.207z"/></g><g fill="#4E4E4E"><path d="M60.282 110.886h-10.25v-1.84l3.9-3.922c1.15-1.18 1.914-2.016 2.29-2.51s.65-.956.822-1.39c.172-.435.26-.9.26-1.397 0-.683-.206-1.22-.617-1.613-.41-.394-.978-.59-1.702-.59-.58 0-1.14.107-1.68.32-.543.215-1.168.6-1.878 1.16L50.114 97.5c.84-.71 1.66-1.214 2.452-1.51.793-.297 1.638-.445 2.535-.445 1.408 0 2.535.367 3.383 1.102s1.272 1.723 1.272 2.964c0 .684-.123 1.332-.367 1.945-.245.614-.62 1.247-1.127 1.898s-1.35 1.533-2.528 2.644l-2.627 2.544v.105h7.18v2.14zM71.104 103.324c0 2.627-.422 4.58-1.267 5.854-.845 1.276-2.136 1.914-3.874 1.914-1.683 0-2.958-.658-3.827-1.976-.87-1.317-1.304-3.248-1.304-5.793 0-2.67.422-4.636 1.268-5.9.844-1.267 2.132-1.9 3.863-1.9 1.69 0 2.97.663 3.838 1.987s1.304 3.262 1.304 5.814zm-7.81 0c0 2.062.21 3.534.635 4.417.423.884 1.1 1.325 2.032 1.325.93 0 1.612-.448 2.043-1.345.43-.896.646-2.362.646-4.396 0-2.027-.214-3.495-.645-4.4-.43-.908-1.112-1.36-2.043-1.36-.93 0-1.608.443-2.033 1.333-.424.89-.637 2.365-.637 4.427zM78.812 110.886h-2.43v-9.766c0-1.165.026-2.09.082-2.77-.16.164-.354.347-.584.547-.23.2-1.005.835-2.323 1.903l-1.22-1.54 4.448-3.498h2.028v15.124zM93.285 107.586h-2.038v3.3h-2.37v-3.3h-6.91v-1.872l6.91-9.993h2.37v9.85h2.038v2.016zm-4.407-2.018v-3.796c0-1.352.035-2.46.104-3.32H88.9c-.194.455-.497 1.007-.91 1.654l-3.756 5.462h4.644zM107.335 106.78c0 1.344-.486 2.398-1.458 3.164-.973.766-2.314 1.148-4.024 1.148s-3.11-.266-4.2-.797v-2.338c.69.324 1.422.58 2.198.766.777.187 1.5.28 2.168.28.98 0 1.702-.188 2.167-.56s.698-.872.698-1.5c0-.565-.214-1.045-.64-1.438-.43-.394-1.312-.858-2.65-1.396-1.378-.56-2.35-1.197-2.916-1.915-.565-.717-.848-1.58-.848-2.586 0-1.263.447-2.256 1.344-2.98.896-.724 2.1-1.086 3.61-1.086 1.448 0 2.89.317 4.324.952l-.786 2.017c-1.345-.565-2.545-.848-3.6-.848-.8 0-1.407.174-1.82.52-.414.35-.62.81-.62 1.383 0 .393.082.73.247 1.008s.437.543.816.792c.38.248 1.062.575 2.048.982 1.11.462 1.924.894 2.44 1.293.518.4.897.852 1.14 1.355.24.505.36 1.1.36 1.78zM113.73 111.093c-1.78 0-3.172-.52-4.175-1.557s-1.505-2.468-1.505-4.288c0-1.87.465-3.338 1.396-4.407.93-1.067 2.21-1.602 3.838-1.602 1.51 0 2.703.458 3.58 1.375.874.918 1.312 2.18 1.312 3.786v1.313h-7.624c.034 1.11.334 1.964.9 2.56.565.597 1.362.896 2.39.896.676 0 1.305-.065 1.888-.192.583-.128 1.208-.34 1.877-.637v1.977c-.593.283-1.193.483-1.8.6s-1.298.176-2.078.176zm-.445-10.014c-.772 0-1.392.244-1.857.733-.465.49-.743 1.204-.833 2.142h5.193c-.014-.945-.242-1.66-.683-2.146s-1.048-.73-1.82-.73zM126.826 110.886l-.486-1.593h-.082c-.553.696-1.107 1.17-1.666 1.422-.56.252-1.275.378-2.152.378-1.123 0-2-.304-2.63-.91-.634-.607-.948-1.466-.948-2.576 0-1.18.438-2.068 1.314-2.67.875-.6 2.21-.927 4.002-.98l1.977-.064v-.61c0-.73-.172-1.277-.512-1.64-.342-.36-.87-.543-1.588-.543-.586 0-1.148.087-1.688.26-.537.172-1.055.375-1.55.61l-.788-1.738c.62-.324 1.3-.57 2.038-.74s1.434-.253 2.09-.253c1.455 0 2.553.316 3.295.95.74.635 1.11 1.63 1.11 2.99v7.706h-1.737zm-3.62-1.656c.882 0 1.59-.246 2.126-.74.533-.492.8-1.184.8-2.073v-.993l-1.468.063c-1.145.04-1.977.232-2.498.574-.52.342-.78.864-.78 1.567 0 .51.15.905.454 1.185.305.28.76.418 1.365.418zM138.372 107.627c0 1.117-.407 1.975-1.22 2.57-.814.597-1.98.896-3.497.896-1.524 0-2.75-.23-3.673-.693v-2.1c1.345.62 2.597.93 3.755.93 1.497 0 2.245-.45 2.245-1.353 0-.29-.083-.53-.248-.725-.166-.193-.438-.393-.817-.6s-.907-.44-1.583-.704c-1.317-.51-2.208-1.02-2.674-1.53-.466-.51-.698-1.173-.698-1.986 0-.98.395-1.74 1.185-2.28.79-.542 1.863-.813 3.223-.813 1.345 0 2.617.27 3.816.815l-.786 1.83c-1.234-.51-2.272-.765-3.113-.765-1.283 0-1.924.366-1.924 1.097 0 .36.167.662.5.91.336.25 1.065.59 2.19 1.024.943.367 1.63.7 2.058 1.005.428.303.745.653.952 1.05s.31.87.31 1.422zM149.876 105.145c0 1.87-.48 3.327-1.438 4.376-.96 1.05-2.293 1.573-4.004 1.573-1.068 0-2.014-.24-2.834-.725-.82-.482-1.452-1.176-1.894-2.08s-.662-1.95-.662-3.144c0-1.855.477-3.303 1.428-4.345.952-1.042 2.293-1.563 4.024-1.563 1.655 0 2.965.532 3.93 1.598s1.45 2.503 1.45 4.31zm-8.327 0c0 2.642.975 3.962 2.927 3.962 1.93 0 2.896-1.32 2.896-3.962 0-2.613-.973-3.92-2.918-3.92-1.02 0-1.76.338-2.22 1.014-.457.674-.686 1.643-.686 2.905zM161.463 110.886h-2.44v-7.034c0-.883-.18-1.54-.533-1.976-.355-.435-.92-.652-1.69-.652-1.028 0-1.78.304-2.256.91-.477.607-.714 1.625-.714 3.052v5.7h-2.43V99.444h1.902l.34 1.5h.125c.345-.544.835-.965 1.47-1.262.634-.296 1.337-.444 2.11-.444 2.744 0 4.116 1.396 4.116 4.19v7.458z"/></g><g fill="#4E4E4E"><path d="M55.57 80.313h6.923v8.644c-1.88.644-3.945.966-6.198.966-2.472 0-4.382-.717-5.73-2.15-1.35-1.433-2.025-3.477-2.025-6.132 0-2.588.74-4.602 2.216-6.043 1.477-1.44 3.547-2.16 6.208-2.16 1.01 0 1.962.095 2.858.284.896.19 1.676.433 2.342.726l-1.37 3.4c-1.157-.57-2.425-.855-3.808-.855-1.265 0-2.243.412-2.934 1.234-.69.823-1.037 2-1.037 3.527 0 1.5.313 2.643.938 3.43.625.785 1.526 1.178 2.704 1.178.644 0 1.236-.062 1.777-.187v-2.51H55.57v-3.347zM78.026 81.344c0 2.677-.737 4.74-2.21 6.187-1.474 1.45-3.545 2.173-6.214 2.173h-5.188V73.665h5.55c2.575 0 4.562.658 5.962 1.975s2.1 3.217 2.1 5.704zm-4.497.153c0-1.47-.292-2.56-.873-3.27s-1.464-1.062-2.65-1.062h-1.26v8.983h.964c1.317 0 2.283-.382 2.897-1.146.615-.764.922-1.933.922-3.505zM85.99 80.313h6.923v8.644c-1.88.644-3.945.966-6.198.966-2.472 0-4.382-.717-5.73-2.15-1.35-1.433-2.025-3.477-2.025-6.132 0-2.588.74-4.602 2.216-6.043 1.477-1.44 3.547-2.16 6.208-2.16 1.01 0 1.962.095 2.858.284.896.19 1.676.433 2.342.726l-1.37 3.4c-1.157-.57-2.425-.855-3.808-.855-1.265 0-2.243.412-2.934 1.234-.69.823-1.037 2-1.037 3.527 0 1.5.313 2.643.938 3.43.625.785 1.526 1.178 2.704 1.178.644 0 1.236-.062 1.777-.187v-2.51H85.99v-3.347z"/></g><radialGradient id="SVGID_5_" cx="-310.583" cy="66.455" r="20.114" gradientTransform="matrix(.498 0 0 .498 172.289 79.739)" gradientUnits="userSpaceOnUse"><stop offset="0" stop-color="#ccc"/><stop offset="1" stop-color="#C0C0C0"/></radialGradient><path fill="url(#SVGID_5_)" d="M8.91 124h6.79c1.608 0 3.605-1.128 4.433-2.51l5.72-9.52c.677-1.396.653-3.426-.12-4.713l-3.377-5.592L8.91 124z"/><radialGradient id="SVGID_6_" cx="-322.635" cy="56.241" r="27.658" gradientTransform="matrix(.498 0 0 .498 172.289 79.739)" gradientUnits="userSpaceOnUse"><stop offset="0" stop-color="#A0A0A0"/><stop offset="1" stop-color="#7B7B7B"/></radialGradient><path fill="url(#SVGID_6_)" d="M16.21 96.514l-15.102 25.25C.524 123.01 1.13 124 2.628 124H8.91l13.446-22.335-6.146-10.173c.83 1.378.83 3.638 0 5.022"/><radialGradient id="SVGID_7_" cx="-313.183" cy="16.559" r="40.54" gradientTransform="matrix(.498 0 0 .498 172.289 79.739)" gradientUnits="userSpaceOnUse"><stop offset="0" stop-color="#848484"/><stop offset="1" stop-color="#838383"/></radialGradient><path fill="url(#SVGID_7_)" d="M2.63 64c-1.614 0-2.255 1.133-1.425 2.51l24.53 40.746c.77 1.288.794 3.317.118 4.713l5.963-9.926L8.914 64H2.63z"/><radialGradient id="SVGID_8_" cx="-301.119" cy="6.594" r="33.058" gradientTransform="matrix(.498 0 0 .498 172.289 79.739)" gradientUnits="userSpaceOnUse"><stop offset="0" stop-color="#626262"/><stop offset="1" stop-color="#474747"/></radialGradient><path fill="url(#SVGID_8_)" d="M8.914 64l22.903 38.045 3.32-5.53c.83-1.385.83-3.645 0-5.023l-15.003-24.98C19.304 65.132 17.308 64 15.7 64H8.915z"/><g fill="#E6E6E5"><path d="M116.07 143.967c0 2.676-.73 4.738-2.192 6.186-1.462 1.448-3.518 2.172-6.166 2.172h-5.148V136.29h5.507c2.555 0 4.527.658 5.917 1.975s2.084 3.215 2.084 5.702zm-4.462.153c0-1.47-.29-2.56-.866-3.27-.577-.708-1.453-1.062-2.628-1.062h-1.25v8.982h.957c1.307 0 2.265-.382 2.875-1.146.608-.764.913-1.932.913-3.504zM123.287 152.544c-2.053 0-3.646-.55-4.782-1.65-1.136-1.1-1.704-2.668-1.704-4.7 0-2.1.527-3.71 1.58-4.83 1.05-1.124 2.553-1.685 4.504-1.685 1.857 0 3.293.486 4.305 1.463s1.52 2.382 1.52 4.217v1.91h-7.61c.03.693.28 1.238.758 1.633.475.395 1.12.592 1.94.592.75 0 1.437-.07 2.064-.214.63-.142 1.31-.384 2.04-.728v3.08c-.667.345-1.356.583-2.067.714-.712.132-1.56.198-2.548.198zm-.25-9.948c-.5 0-.92.16-1.256.478-.337.317-.536.816-.593 1.497h3.656c-.014-.6-.184-1.078-.506-1.437-.32-.358-.755-.537-1.3-.537zM133.01 152.324l-4.703-12.427h4.44l2.09 7.35c.008.036.022.098.044.186s.044.192.066.313c.02.12.04.25.06.384.018.136.027.262.027.38h.076c0-.382.064-.795.194-1.24l2.188-7.37h4.43l-4.702 12.426h-4.21zM146.54 152.324h-4.235V136.29h9.404v3.477h-5.17v3.06h4.766v3.477h-4.767v6.02zM158.687 152.544c-2.054 0-3.647-.55-4.783-1.65-1.136-1.1-1.703-2.668-1.703-4.7 0-2.1.526-3.71 1.58-4.83 1.05-1.124 2.553-1.685 4.505-1.685 1.857 0 3.292.486 4.305 1.463 1.012.977 1.52 2.382 1.52 4.217v1.91h-7.61c.03.693.282 1.238.758 1.633.475.395 1.122.592 1.942.592.747 0 1.435-.07 2.063-.214s1.308-.384 2.04-.728v3.08c-.667.345-1.356.583-2.067.714-.714.132-1.562.198-2.55.198zm-.25-9.948c-.5 0-.92.16-1.257.478-.338.317-.536.816-.594 1.497h3.657c-.015-.6-.184-1.078-.506-1.437-.323-.358-.757-.537-1.3-.537zM174.7 148.508c0 1.33-.45 2.336-1.35 3.016-.9.68-2.192 1.02-3.876 1.02-.914 0-1.71-.05-2.384-.147s-1.364-.28-2.067-.543v-3.433c.66.293 1.384.534 2.17.725s1.49.285 2.107.285c.92 0 1.382-.212 1.382-.636 0-.22-.13-.415-.386-.587-.258-.172-1.007-.507-2.248-1.004-1.132-.468-1.923-1-2.373-1.596-.45-.596-.675-1.35-.675-2.265 0-1.155.442-2.055 1.328-2.698.885-.644 2.137-.965 3.755-.965.813 0 1.576.088 2.29.268.716.18 1.458.44 2.228.784l-1.153 2.764c-.565-.256-1.164-.474-1.796-.652-.63-.18-1.145-.27-1.545-.27-.696 0-1.044.173-1.044.517 0 .213.122.394.365.543.243.15.945.456 2.106.916.864.357 1.508.71 1.933 1.052.425.344.736.748.936 1.212.2.463.3 1.028.3 1.694zM181.764 149.154c.573 0 1.26-.143 2.058-.428v3.126c-.573.25-1.12.426-1.64.532-.518.105-1.125.16-1.82.16-1.43 0-2.46-.355-3.093-1.06-.632-.706-.947-1.79-.947-3.252v-5.122h-1.49v-1.744l1.893-1.35 1.1-2.61h2.786v2.49h3.025v3.214h-3.025v4.837c-.002.806.383 1.207 1.152 1.207z"/></g><g fill="#E6E6E5"><path d="M60.44 173.886H50.19v-1.84l3.9-3.922c1.15-1.18 1.915-2.016 2.29-2.51s.65-.956.823-1.39c.172-.435.26-.9.26-1.397 0-.683-.206-1.22-.617-1.613-.41-.394-.978-.59-1.702-.59-.58 0-1.14.107-1.68.32-.543.215-1.168.6-1.878 1.16l-1.314-1.605c.84-.71 1.66-1.215 2.452-1.51.793-.298 1.638-.446 2.535-.446 1.406 0 2.533.367 3.38 1.102s1.273 1.723 1.273 2.964c0 .683-.123 1.33-.367 1.944-.245.614-.62 1.247-1.127 1.898s-1.35 1.533-2.53 2.644l-2.627 2.544v.104h7.18v2.142zM71.262 166.324c0 2.627-.422 4.58-1.267 5.854-.845 1.276-2.136 1.914-3.874 1.914-1.682 0-2.957-.658-3.826-1.976-.87-1.317-1.304-3.248-1.304-5.793 0-2.67.422-4.636 1.268-5.9.844-1.267 2.132-1.9 3.863-1.9 1.69 0 2.97.663 3.84 1.987s1.302 3.262 1.302 5.814zm-7.81 0c0 2.062.212 3.534.636 4.417.424.884 1.102 1.325 2.033 1.325.932 0 1.613-.448 2.044-1.345.43-.896.646-2.362.646-4.396 0-2.027-.215-3.495-.646-4.4-.43-.908-1.112-1.36-2.043-1.36-.93 0-1.607.443-2.032 1.333-.423.89-.636 2.365-.636 4.427zM78.97 173.886h-2.43v-9.766c0-1.165.027-2.09.083-2.77-.16.164-.354.347-.584.547-.232.2-1.006.835-2.324 1.903l-1.22-1.54 4.448-3.498h2.028v15.124zM93.443 170.586h-2.038v3.3h-2.37v-3.3h-6.91v-1.872l6.91-9.993h2.37v9.85h2.038v2.016zm-4.406-2.018v-3.796c0-1.352.035-2.46.104-3.32h-.082c-.193.455-.496 1.007-.91 1.654l-3.755 5.462h4.644zM107.494 169.78c0 1.344-.486 2.398-1.458 3.164-.973.766-2.314 1.148-4.024 1.148s-3.11-.266-4.2-.797v-2.338c.69.324 1.422.58 2.198.766.776.187 1.5.28 2.167.28.98 0 1.702-.188 2.167-.56s.698-.872.698-1.5c0-.565-.214-1.045-.64-1.438-.43-.394-1.312-.858-2.65-1.396-1.378-.56-2.35-1.197-2.916-1.915-.565-.717-.848-1.58-.848-2.586 0-1.263.448-2.256 1.345-2.98.896-.724 2.1-1.086 3.61-1.086 1.448 0 2.89.317 4.324.952l-.786 2.017c-1.344-.565-2.544-.848-3.6-.848-.8 0-1.406.174-1.82.52-.413.35-.62.81-.62 1.383 0 .393.083.73.248 1.008s.438.543.817.792c.38.248 1.062.575 2.048.982 1.11.462 1.924.894 2.44 1.293.518.4.897.852 1.14 1.355.24.505.36 1.1.36 1.78zM113.888 174.093c-1.78 0-3.17-.52-4.174-1.557s-1.505-2.468-1.505-4.288c0-1.87.464-3.338 1.395-4.407.93-1.067 2.21-1.602 3.838-1.602 1.51 0 2.703.458 3.58 1.375.874.918 1.312 2.18 1.312 3.786v1.313h-7.624c.035 1.11.335 1.964.9 2.56.566.597 1.363.896 2.39.896.677 0 1.306-.065 1.89-.192.582-.128 1.207-.34 1.876-.637v1.977c-.593.283-1.193.483-1.8.6s-1.3.176-2.078.176zm-.445-10.014c-.772 0-1.392.244-1.857.733-.465.49-.743 1.204-.833 2.142h5.193c-.014-.945-.242-1.66-.683-2.146s-1.048-.73-1.82-.73zM126.984 173.886l-.486-1.593h-.082c-.553.696-1.107 1.17-1.666 1.422-.56.252-1.275.378-2.152.378-1.123 0-2-.304-2.63-.91-.634-.607-.948-1.466-.948-2.576 0-1.18.438-2.068 1.314-2.67.875-.6 2.21-.927 4.002-.98l1.977-.064v-.61c0-.73-.172-1.277-.512-1.64-.34-.36-.87-.543-1.587-.543-.586 0-1.148.087-1.688.26-.537.172-1.055.375-1.55.61l-.788-1.738c.62-.324 1.3-.57 2.04-.74s1.433-.253 2.09-.253c1.454 0 2.552.316 3.294.95.74.635 1.112 1.63 1.112 2.99v7.706h-1.738zm-3.62-1.656c.882 0 1.59-.246 2.126-.74.533-.492.8-1.184.8-2.073v-.993l-1.468.063c-1.145.04-1.977.232-2.498.574-.52.342-.78.864-.78 1.567 0 .51.15.905.454 1.185.305.28.76.418 1.365.418zM138.53 170.627c0 1.117-.407 1.975-1.22 2.57-.814.597-1.98.896-3.497.896-1.524 0-2.75-.23-3.673-.693v-2.1c1.345.62 2.597.93 3.755.93 1.497 0 2.245-.45 2.245-1.353 0-.29-.083-.53-.248-.725-.166-.193-.438-.393-.817-.6s-.907-.44-1.583-.704c-1.317-.51-2.208-1.02-2.674-1.53-.466-.51-.698-1.173-.698-1.986 0-.98.395-1.74 1.185-2.28.79-.542 1.863-.813 3.223-.813 1.345 0 2.617.27 3.816.815l-.786 1.83c-1.234-.51-2.272-.765-3.113-.765-1.283 0-1.924.366-1.924 1.097 0 .36.168.662.502.91.335.25 1.064.59 2.188 1.024.944.367 1.63.7 2.06 1.005.426.303.743.653.95 1.05s.31.87.31 1.422zM150.034 168.145c0 1.87-.48 3.327-1.438 4.376-.96 1.05-2.293 1.573-4.004 1.573-1.068 0-2.014-.24-2.834-.725-.82-.482-1.452-1.176-1.894-2.08s-.662-1.95-.662-3.144c0-1.855.477-3.303 1.428-4.345.952-1.042 2.293-1.563 4.024-1.563 1.655 0 2.965.532 3.93 1.598s1.45 2.503 1.45 4.31zm-8.327 0c0 2.642.976 3.962 2.928 3.962 1.93 0 2.896-1.32 2.896-3.962 0-2.613-.972-3.92-2.917-3.92-1.02 0-1.76.338-2.22 1.014-.456.674-.686 1.643-.686 2.905zM161.62 173.886h-2.44v-7.034c0-.883-.178-1.54-.532-1.976-.355-.435-.92-.652-1.69-.652-1.028 0-1.78.304-2.256.91-.477.607-.714 1.625-.714 3.052v5.7h-2.43v-11.44h1.902l.34 1.5h.125c.345-.545.835-.966 1.47-1.263.634-.296 1.337-.444 2.11-.444 2.744 0 4.116 1.395 4.116 4.188v7.458z"/></g><g fill="#E6E6E5"><path d="M55.73 143.313h6.92v8.644c-1.878.644-3.944.966-6.197.966-2.472 0-4.382-.717-5.73-2.15s-2.025-3.478-2.025-6.132c0-2.588.74-4.603 2.216-6.043s3.547-2.16 6.208-2.16c1.01 0 1.962.095 2.858.284.896.19 1.676.433 2.342.726l-1.37 3.4c-1.157-.57-2.425-.855-3.808-.855-1.265 0-2.243.412-2.934 1.234-.69.823-1.037 1.998-1.037 3.526 0 1.5.313 2.643.938 3.43.626.785 1.527 1.178 2.705 1.178.644 0 1.236-.062 1.777-.187v-2.51H55.73v-3.347zM78.185 144.345c0 2.677-.737 4.738-2.21 6.187s-3.545 2.172-6.214 2.172h-5.187v-16.037h5.55c2.575 0 4.562.658 5.962 1.975s2.1 3.216 2.1 5.703zm-4.497.153c0-1.47-.29-2.56-.872-3.27s-1.464-1.063-2.65-1.063h-1.26v8.984h.964c1.316 0 2.282-.384 2.896-1.147.614-.765.922-1.933.922-3.505zM86.15 143.313h6.922v8.644c-1.88.644-3.945.966-6.198.966-2.472 0-4.382-.717-5.73-2.15s-2.025-3.478-2.025-6.132c0-2.588.738-4.603 2.215-6.043s3.547-2.16 6.208-2.16c1.01 0 1.962.095 2.858.284.897.19 1.677.433 2.343.726l-1.37 3.4c-1.157-.57-2.425-.855-3.808-.855-1.265 0-2.243.412-2.934 1.234-.69.823-1.036 1.998-1.036 3.526 0 1.5.313 2.643.938 3.43.625.785 1.526 1.178 2.704 1.178.644 0 1.236-.062 1.777-.187v-2.51H86.15v-3.347z"/></g><radialGradient id="SVGID_9_" cx="-310.265" cy="192.965" r="20.114" gradientTransform="matrix(.498 0 0 .498 172.289 79.739)" gradientUnits="userSpaceOnUse"><stop offset="0" stop-color="#FFCF4F"/><stop offset="1" stop-color="#F4C236"/></radialGradient><path fill="url(#SVGID_9_)" d="M9.068 187h6.79c1.608 0 3.605-1.128 4.433-2.51l5.72-9.52c.678-1.396.654-3.426-.118-4.713l-3.378-5.592L9.068 187z"/><radialGradient id="SVGID_10_" cx="-322.317" cy="182.751" r="27.658" gradientTransform="matrix(.498 0 0 .498 172.289 79.739)" gradientUnits="userSpaceOnUse"><stop offset="0" stop-color="#08A960"/><stop offset="1" stop-color="#07914B"/></radialGradient><path fill="url(#SVGID_10_)" d="M16.368 159.514l-15.102 25.25C.683 186.01 1.29 187 2.786 187H9.07l13.446-22.335-6.146-10.173c.83 1.378.83 3.638 0 5.022"/><radialGradient id="SVGID_11_" cx="-312.865" cy="143.069" r="40.54" gradientTransform="matrix(.498 0 0 .498 172.289 79.739)" gradientUnits="userSpaceOnUse"><stop offset="0" stop-color="#567FC0"/><stop offset="1" stop-color="#557FC0"/></radialGradient><path fill="url(#SVGID_11_)" d="M2.787 127c-1.613 0-2.254 1.133-1.424 2.51l24.53 40.746c.77 1.288.794 3.317.118 4.713l5.964-9.926L9.072 127H2.787z"/><radialGradient id="SVGID_12_" cx="-300.801" cy="133.104" r="33.058" gradientTransform="matrix(.498 0 0 .498 172.289 79.739)" gradientUnits="userSpaceOnUse"><stop offset="0" stop-color="#E14C40"/><stop offset="1" stop-color="#CD392D"/></radialGradient><path fill="url(#SVGID_12_)" d="M9.072 127l22.903 38.045 3.32-5.53c.83-1.385.83-3.645 0-5.023l-15.003-24.98c-.83-1.38-2.825-2.512-4.432-2.512H9.072z"/></svg>