<svg xmlns="http://www.w3.org/2000/svg" xmlns:xlink="http://www.w3.org/1999/xlink" width="725" height="80" viewBox="0 0 725 80"><defs><path class="path1" d="M29.917 13.535h-.41l-4.57-8.273c-.197-.358-.694-.65-1.103-.65H9.974c-.41 0-.907.292-1.104.65L4.3 13.535h-.41c-.818 0-1.487.67-1.487 1.487v7.436c0 .818.67 1.487 1.487 1.487h1.487v2.23c0 1.228 1.003 2.232 2.23 2.232h.744c1.228 0 2.232-1.003 2.232-2.23v-2.232h12.642v2.23c0 1.228 1.003 2.232 2.23 2.232h.744c1.227 0 2.23-1.003 2.23-2.23v-2.232h1.488c.818 0 1.487-.67 1.487-1.487v-7.436c0-.818-.668-1.487-1.486-1.487zm-23.424 5.95c-1.027 0-1.86-.832-1.86-1.86 0-1.027.833-1.858 1.86-1.858s1.86.832 1.86 1.86-.832 1.858-1.86 1.858zm1.488-5.95l3.015-6.026c.183-.368.667-.667 1.076-.667h9.668c.41 0 .893.3 1.076.666l3.014 6.025H7.98zm19.335 5.95c-1.028 0-1.86-.832-1.86-1.86 0-1.027.833-1.858 1.86-1.858s1.86.832 1.86 1.86-.834 1.858-1.86 1.858z" id="icon-driving"/><path class="path1" d="M1.882 5.12c-1.882 0-.94.5 0 1.263L16 17.128 30.118 6.416c.942-.765 1.882-1.297 0-1.297H1.883zM0 7.645V23.47c0 .932.952 2.13 1.706 2.13h28.59c.753 0 1.705-1.197 1.705-2.13V7.646L16 19.853 0 7.645z" id="icon-email"/><path class="path1" d="M20.81 30.788L16.286 17.28H1.575L29.864 1.405z" id="icon-navigate"/><path class="path1" d="M16 .64C7.53.64.64 7.53.64 16S7.53 31.36 16 31.36c8.47 0 15.36-6.89 15.36-15.36S24.47.64 16 .64zm1.92 28v-5.6h-3.84v5.6c-5.52-.837-9.883-5.2-10.72-10.72h5.6v-3.84h-5.6c.837-5.52 5.2-9.883 10.72-10.72v5.6h3.84v-5.6c5.52.837 9.883 5.2 10.72 10.72h-5.6v3.84h5.6c-.837 5.52-5.2 9.883-10.72 10.72z" id="icon-geolocation"/><path class="path1" d="M7.336.64c-.872 0-1.576.72-1.576 1.617v27.485c0 .808.788 1.617 1.576 1.617s1.575-.81 1.575-1.618V13.17c.54-.235 1.063-.405 1.577-.405 3.15 0 7.798 4.043 11.028 4.043 1.377 0 3.348-.557 4.726-1.617V3.874C24.68 5.076 23.096 6.3 21.516 6.3c-3.15 0-7.866-4.043-11.028-4.043-.53 0-1.05.097-1.576.202v-.203C8.91 1.362 8.21.64 7.337.64z" id="icon-flag"/><path class="path1" d="M26.344 16H5.85c-.596 0-1.088-.513-1.088-1.097 0-.097.018-.207.038-.296l1.09-7.615c.094-.495.54-.592 1.072-.592h18.274c.53 0 .98.09 1.07.582l1.09 7.754c.018.09.04.143.04.24-.002.585-.496 1.024-1.092 1.024zm-.82 8.54c-1.154 0-2.09-.907-2.09-2.04 0-1.124.936-2.03 2.09-2.03 1.146 0 2.084.907 2.084 2.03 0 1.133-.938 2.04-2.084 2.04zm-18.88 0c-1.147 0-2.083-.907-2.083-2.04 0-1.124.937-2.03 2.083-2.03 1.157 0 2.09.907 2.09 2.03 0 1.133-.933 2.04-2.09 2.04zM10.24 1.92h12.8v1.92h-12.8c-1.28 0-1.28-1.92 0-1.92zm18.05 2.938c-.375-1.8-1.467-2.525-3.248-3.25C23.264.886 19.144.02 16.045.02 12.933.02 8.79.888 7.01 1.61c-1.78.725-2.853 1.45-3.224 3.25L2.56 14.88V28.8h1.92v1.28c0 2.56 3.2 2.56 3.2 0V28.8h16v1.28c0 2.56 3.84 2.56 3.84 0V28.8h1.92V14.88L28.287 4.858z" id="icon-transit"/><path class="path1" d="M15.26 6.047c1.29-.034 2.304-1.13 2.27-2.438-.034-1.326-1.1-2.354-2.39-2.33-1.282.035-2.296 1.13-2.27 2.445.034 1.315 1.11 2.356 2.39 2.323zm7.91 7.9l-3.41-1.906-2.824-4.49c-.453-.577-1.16-1.004-1.97-.994-.606.02-1.14.3-1.568.676L9.144 11.58c-.14.15-.237.34-.27.55l-.545 4.787c-.007.052-.007.095-.01.147.016.594.5 1.055 1.08 1.044.545-.013.96-.485 1.02-1.003l.45-4.11 1.48-1.505-1.324 11.515-2.457 5.433c-.075.19-.15.458-.145.71.024.888.748 1.59 1.62 1.57.616-.016 1.118-.396 1.388-.935l2.632-5.864c.053-.158.24-.54.246-.714l.308-2.838 2.71 9.23c.233.645.828 1.133 1.542 1.113.868-.023 1.562-.758 1.542-1.65-.007-.115-.04-.19-.047-.324l-3.766-12.8.48-4.158 1.062 1.68c.073.11.173.212.287.283l3.724 2.087c.18.058.32.106.486.106.59-.017 1.05-.512 1.036-1.11-.012-.366-.214-.7-.508-.88z" id="icon-walking"/><path class="path1" d="M7.234 27.613c2.68 0 4.854-2.23 4.854-4.975 0-2.753-2.173-4.984-4.854-4.984-2.675 0-4.85 2.23-4.85 4.984 0 2.745 2.175 4.975 4.85 4.975zM1.28 22.638c0-3.377 2.67-6.11 5.954-6.11 3.292 0 5.958 2.734 5.958 6.11 0 3.375-2.666 6.1-5.958 6.1-3.283 0-5.954-2.724-5.954-6.1zm23.49 5.036c2.67 0 4.846-2.23 4.846-4.977 0-2.75-2.176-4.982-4.847-4.982-2.683 0-4.86 2.23-4.86 4.982 0 2.746 2.177 4.977 4.86 4.977zm-5.964-4.976c0-3.375 2.67-6.107 5.962-6.107 3.28 0 5.95 2.733 5.95 6.11 0 3.37-2.67 6.1-5.95 6.1-3.29 0-5.962-2.73-5.962-6.1zm.02-14.91c1.235 0 2.24-1.023 2.24-2.29S20.06 3.2 18.826 3.2s-2.242 1.03-2.242 2.298 1.004 2.29 2.24 2.29zm.093 5.652c-.326 0-.676-.195-.934-.615l-1.455-2.35-3 3.04 2.78 1.494c1.145.56.97 1.586.97 1.586v6.46c0 .734-.566 1.33-1.28 1.33s-1.28-.596-1.28-1.33v-5.17l-4.835-2.747c-.575-.333-.97-.964-.97-1.682 0-.495.178-.95.482-1.288l4.735-4.86c.588-.686 1.407-.577 1.407-.577.99 0 1.513.888 1.513.888l2.356 3.954 3.63-.007c1.28 0 1.28 1.874 0 1.874h-4.122z" id="icon-bicycling"/><path class="path1" d="M25.333 5.333q.573 0 .953.38t.38.953q0 .563-.385.948L17.886 16l8.396 8.384q.386.385.386.948 0 .573-.38.953t-.953.38q-.563 0-.948-.385L16 17.884 7.615 26.28q-.385.385-.948.385-.573 0-.953-.38t-.38-.953q0-.563.385-.948L14.114 16 5.72 7.613q-.386-.385-.386-.948 0-.573.38-.953t.953-.38q.563 0 .948.385L16 14.114l8.385-8.396q.385-.385.948-.385z" id="icon-cross"/><path class="path1" d="M4 6.667h24q.552 0 .943.39t.39.944-.39.944-.943.39H4q-.552 0-.943-.39T2.667 8t.39-.942.943-.39zm0 16h24q.552 0 .943.39t.39.944-.39.944-.943.39H4q-.552 0-.943-.39T2.667 24t.39-.942.943-.39zm0-8h24q.552 0 .943.39t.39.944-.39.944-.943.39H4q-.552 0-.943-.39T2.667 16t.39-.942.943-.39z" id="icon-menu"/><path class="path1" d="M28.93 7.286q-1.197 1.75-2.894 2.982.018.25.018.75 0 2.32-.68 4.634t-2.062 4.437-3.295 3.758-4.607 2.607-5.768.973q-4.84 0-8.857-2.59.625.072 1.393.072 4.018 0 7.16-2.464-1.874-.036-3.356-1.152t-2.036-2.848q.59.09 1.09.09.767 0 1.517-.197-2-.412-3.313-1.992t-1.313-3.67v-.07q1.214.678 2.607.73-1.18-.785-1.875-2.053t-.697-2.75q0-1.57.786-2.91 2.16 2.66 5.258 4.258t6.634 1.777q-.143-.68-.143-1.32 0-2.394 1.687-4.08t4.08-1.69q2.5 0 4.214 1.822Q26.428 6.017 28.143 5q-.66 2.053-2.536 3.178 1.66-.18 3.32-.893z" id="icon-twitter"/><path class="path1" d="M9.125 9.93h4.59L13.177 15H9.124v14.714h-6.09V15H0V9.93h3.035V6.874q0-3.25 1.536-4.92T9.626.285h4.054v5.07h-2.537q-.696 0-1.116.117t-.607.42-.24.616-.055.884v2.536z" id="icon-facebook"/><path class="path1" d="M27.43 16q0 4.482-2.617 8.063t-6.76 4.955q-.48.09-.704-.125t-.224-.536V24.59q0-1.733-.93-2.537 1.02-.107 1.83-.32t1.68-.697 1.446-1.188.946-1.875.366-2.688q0-2.16-1.41-3.68.66-1.624-.144-3.642-.5-.16-1.446.196t-1.643.785l-.678.43q-1.66-.465-3.43-.465t-3.428.464q-.286-.196-.76-.482t-1.49-.688-1.536-.24q-.786 2.017-.125 3.642-1.41 1.518-1.41 3.68 0 1.517.365 2.678t.938 1.875 1.438 1.195 1.68.696 1.83.322q-.715.643-.876 1.84-.375.178-.804.267t-1.018.088-1.17-.384-.99-1.116q-.34-.57-.867-.93t-.885-.428l-.357-.054q-.375 0-.518.08t-.09.205.162.25.232.215l.125.09q.392.178.776.678t.563.91l.178.412q.232.68.786 1.098t1.196.536 1.24.124.992-.063l.41-.07q0 .68.01 1.59t.01.963q0 .32-.233.536t-.715.124q-4.143-1.375-6.76-4.955T0 15.995q0-3.732 1.84-6.884t4.99-4.99 6.884-1.84 6.884 1.84 4.99 4.99 1.84 6.884z" id="icon-github"/><path class="path1" d="M6.857 24q0 1.43-1 2.43t-2.43 1-2.428-1T0 24t1-2.43 2.428-1 2.43 1 1 2.43zM16 26.196q.036.5-.304.857-.32.375-.84.375h-2.41q-.446 0-.768-.295t-.357-.74q-.392-4.09-3.294-6.992t-6.99-3.294q-.447-.036-.742-.357T0 14.98v-2.41q0-.518.374-.84.304-.303.768-.303h.09q2.856.232 5.463 1.438t4.625 3.24q2.036 2.02 3.24 4.626T16 26.196zm9.143.036q.036.482-.32.84-.322.356-.822.356h-2.553q-.464 0-.795-.313t-.348-.76q-.214-3.838-1.804-7.294t-4.134-6-6-4.133-7.295-1.82q-.445-.02-.758-.35T0 5.982V3.428q0-.5.356-.82.32-.322.786-.322h.054q4.68.232 8.955 2.143t7.6 5.25q3.338 3.32 5.25 7.598t2.142 8.955z" id="icon-rss"/><path class="path1" d="M26 21.714q0-.714-.5-1.214l-3.714-3.714q-.5-.5-1.214-.5-.75 0-1.286.57.054.055.34.33t.383.385.267.34.232.455.062.49q0 .715-.5 1.215t-1.214.5q-.268 0-.49-.063t-.456-.232-.34-.268-.383-.384-.33-.34q-.59.555-.59 1.305 0 .714.5 1.214l3.68 3.696q.48.482 1.213.482.714 0 1.214-.464l2.625-2.607q.5-.5.5-1.197zM13.446 9.124q0-.713-.5-1.213l-3.68-3.695q-.5-.5-1.213-.5-.696 0-1.214.482L4.213 6.804q-.5.5-.5 1.196 0 .714.5 1.214l3.714 3.714q.482.482 1.214.482.75 0 1.286-.554-.054-.054-.34-.33t-.383-.384-.268-.34-.232-.454-.063-.49q0-.715.5-1.215t1.214-.5q.268 0 .49.063t.456.232.34.268.383.384.33.34q.59-.555.59-1.305zm15.983 12.59q0 2.143-1.52 3.625l-2.624 2.606q-1.482 1.482-3.625 1.482-2.16 0-3.642-1.518l-3.68-3.696q-1.48-1.482-1.48-3.625 0-2.197 1.57-3.733l-1.57-1.57q-1.537 1.57-3.715 1.57-2.143 0-3.643-1.5l-3.714-3.714Q.286 10.143.286 8t1.518-3.625L4.43 1.768Q5.91.286 8.053.286q2.16 0 3.643 1.518l3.68 3.696q1.48 1.482 1.48 3.625 0 2.196-1.57 3.732l1.57 1.57q1.537-1.57 3.715-1.57 2.143 0 3.643 1.5l3.714 3.714q1.5 1.5 1.5 3.644z" id="icon-site"/><path class="path1" d="M27.43 16q0 3.732-1.84 6.884t-4.99 4.99-6.885 1.84q-1.982 0-3.893-.57 1.054-1.662 1.393-2.93.16-.607.964-3.768.356.696 1.303 1.205t2.036.51q2.16 0 3.856-1.223T22 19.57t.93-4.82q0-2.036-1.063-3.82t-3.08-2.912-4.554-1.125q-1.875 0-3.5.518t-2.76 1.376T6.03 10.76 4.832 13.07t-.384 2.393q0 1.857.714 3.268t2.09 1.982q.535.214.678-.357.036-.125.143-.554t.143-.536q.107-.41-.196-.768-.91-1.09-.91-2.696 0-2.696 1.865-4.634t4.884-1.938q2.695 0 4.204 1.464t1.51 3.804q0 3.036-1.224 5.16t-3.134 2.126q-1.09 0-1.75-.777t-.41-1.867q.142-.625.472-1.67t.536-1.84.205-1.347q0-.893-.483-1.482t-1.375-.59q-1.107 0-1.875 1.02t-.768 2.535q0 1.303.445 2.178l-1.768 7.464q-.304 1.25-.232 3.16-3.68-1.624-5.946-5.017T0 16q0-3.73 1.84-6.883t4.99-4.99 6.885-1.84 6.884 1.84 4.99 4.99T27.43 16z" id="icon-pinterest"/><path class="path1" d="M15.643 26.16q0-.374-.08-.722t-.17-.643-.313-.616-.375-.546-.473-.527-.49-.455-.572-.455-.554-.41-.59-.412-.544-.375q-.304-.036-.893-.036-.965 0-1.894.125t-1.93.445-1.75.82-1.23 1.34-.483 1.91q0 1.215.634 2.17t1.66 1.5 2.153.814 2.268.267q1.054 0 2.01-.223t1.794-.696 1.33-1.313.49-1.964zM13.5 10.77q0-1.07-.295-2.277t-.84-2.33-1.5-1.856-2.133-.732q-1.66 0-2.57 1.232T5.25 7.75q0 .84.205 1.768t.634 1.857 1 1.67T8.48 14.25t1.732.464q1.732 0 2.51-1.08t.776-2.866zm-2.34-8.482h7.805l-2.41 1.41h-2.412q1.268.805 1.964 2.25t.696 3.02q0 1.32-.41 2.347t-1 1.652-1.18 1.152-1 1.09-.41 1.204q0 .465.294.912t.768.857 1.045.856 1.143.99 1.045 1.18.768 1.518.295 1.902q0 2.857-2.5 5.036-2.713 2.34-7.5 2.34-1.053 0-2.133-.18t-2.18-.598-1.937-1.036-1.375-1.59T0 26.43q0-1.088.66-2.41.57-1.143 1.714-1.973t2.59-1.268 2.767-.643 2.68-.24Q9.267 18.41 9.267 17.23q0-.214.036-.42t.09-.348.142-.384.125-.384q-.714.09-1.25.09-2.66 0-4.563-1.75T1.945 9.64q0-2.5 1.696-4.473T7.82 2.64q1.68-.357 3.34-.357zm18.554 4.57v2.287h-4.57v4.57h-2.287v-4.57h-4.57V6.857h4.57v-4.57h2.286v4.57h4.57z" id="icon-google-plus"/><path class="path1" d="M6.232 11.16v17.697H.34V11.16H6.23zm.375-5.464Q6.625 7 5.705 7.876t-2.42.874H3.25q-1.465 0-2.358-.875T0 5.695q0-1.32.92-2.187t2.4-.866 2.376.866.91 2.188zM27.43 18.714v10.143h-5.876v-9.464q0-1.875-.723-2.938t-2.258-1.063q-1.125 0-1.884.616t-1.134 1.527q-.196.536-.196 1.446v9.876H9.483q.036-7.125.036-11.554t-.02-5.286l-.017-.857h5.875v2.57h-.036q.357-.57.732-1t1.01-.93 1.553-.776 2.045-.277q3.054 0 4.91 2.027t1.858 5.938z" id="icon-linkedin"/><path class="path1" d="M22.857 16q0-.66-.536-.964L13.18 9.322q-.554-.357-1.16-.036-.59.32-.59 1v11.43q0 .678.59 1 .285.142.553.142.358 0 .608-.18l9.143-5.713q.537-.304.537-.964zM32 16q0 1.714-.018 2.68t-.152 2.437-.402 2.634q-.286 1.305-1.232 2.197t-2.214 1.036q-3.964.446-11.982.446t-11.982-.447q-1.268-.143-2.223-1.036T.555 23.75q-.25-1.16-.385-2.633T.018 18.68 0 16t.018-2.68.152-2.437.402-2.634q.286-1.305 1.232-2.197t2.214-1.036Q7.982 4.57 16 4.57t11.982.447q1.268.143 2.223 1.036t1.24 2.196q.25 1.16.385 2.633t.152 2.438T32 16z" id="icon-youtube"/><path class="path1" d="M16.57 25.018v2.696l-12.624.018v-2.696zm4.305-6.18v12.52l-.018.624V32L0 31.982V18.84h2.16v11.035h16.572V18.84h2.143zm-16.57 1.573l12.57 1.162-.232 2.68-12.59-1.162zm1.213-5.642l12.196 3.268-.696 2.607-12.196-3.268zm2.91-6.232l10.876 6.43-1.375 2.32-10.876-6.43zm6.43-5.91l7.106 10.445-2.214 1.52-7.125-10.43zM22.945 0l2.16 12.446-2.66.464L20.286.464z" id="icon-stack-overflow"/><path class="path1" d="M20.946 18.982q0-.893-.348-1.634t-.866-1.223-1.304-.875-1.473-.607-1.563-.41l-1.857-.43q-.536-.125-.786-.188t-.626-.205-.536-.286-.295-.375-.134-.537q0-1.375 2.57-1.375.768 0 1.375.214t.964.51.678.597.714.517.857.214q.838 0 1.347-.57t.51-1.375q0-.982-1-1.777T16.64 7.963t-3.25-.41q-1.214 0-2.357.276T8.9 8.667t-1.59 1.554-.598 2.295q0 1.09.34 1.902t1 1.347 1.428.866 1.84.58l2.606.643q1.607.393 2 .643.57.356.57 1.07 0 .696-.713 1.152t-1.875.455q-.91 0-1.634-.286t-1.16-.687-.814-.804-.82-.69-.965-.285q-.893 0-1.348.536t-.455 1.34q0 1.643 2.18 2.813t5.195 1.17q1.304 0 2.5-.33t2.188-.955 1.58-1.67.59-2.348zm6.483 3.875q0 2.84-2.01 4.848t-4.848 2.01q-2.32 0-4.18-1.43-1.374.286-2.678.286-2.554 0-4.884-.99T4.812 24.9t-2.68-4.017T1.143 16q0-1.305.286-2.68-1.43-1.857-1.43-4.18 0-2.838 2.01-4.847t4.848-2.01q2.32 0 4.18 1.43 1.374-.286 2.678-.286 2.554 0 4.884.99t4.018 2.68 2.68 4.018.99 4.884q0 1.303-.286 2.678 1.43 1.857 1.43 4.18z" id="icon-skype"/><path class="path1" d="M34.232 9.286q.41 1.143-2.68 5.25-.428.57-1.16 1.518-1.393 1.786-1.607 2.34-.304.73.25 1.445.304.374 1.446 1.463h.02l.07.07q2.518 2.34 3.41 3.947.055.09.117.223t.125.473-.01.607-.445.49-1.054.224l-4.57.07q-.43.09-1-.088t-.93-.394l-.357-.214q-.536-.375-1.25-1.143t-1.223-1.385-1.09-1.036-1.008-.278q-.054.018-.143.063t-.304.26-.384.526-.304.93-.116 1.384q0 .268-.063.49t-.133.33l-.07.09q-.322.34-.947.393h-2.054q-1.268.07-2.607-.295t-2.35-.946-1.838-1.18-1.26-1.026l-.445-.43q-.18-.178-.49-.535T6.498 21.3t-1.894-2.696-2.188-3.768T.088 9.98q-.107-.287-.107-.483t.055-.286l.07-.106q.27-.34 1.02-.34l4.892-.035q.214.035.41.115t.287.152l.09.054q.285.197.428.572.357.893.82 1.848t.733 1.455l.286.518q.52 1.07 1 1.857t.867 1.223.74.688.608.25.482-.088q.036-.018.09-.09t.213-.392.24-.84.17-1.445 0-2.232q-.035-.714-.16-1.304t-.25-.822l-.107-.214q-.446-.607-1.518-.768-.232-.036.09-.43.303-.338.678-.535.946-.463 4.268-.428 1.465.018 2.412.232.357.09.598.24t.366.43.188.57.063.814-.018.982-.046 1.26-.027 1.472q0 .196-.018.75t-.01.857.063.722.205.696.402.438q.143.036.304.07t.464-.195.68-.615.928-1.196 1.214-1.92q1.07-1.858 1.91-4.02.072-.178.18-.312t.196-.188l.07-.054.09-.045.232-.053.357-.01 5.143-.035q.696-.09 1.143.045t.555.295z" id="icon-vk"/><path class="path1" d="M4.13 8.962c-.433-.43-1.133-.43-1.565 0-.432.427-.432 1.122 0 1.55L15.218 23.04c.434.43 1.133.43 1.566 0l12.653-12.528c.432-.43.434-1.122 0-1.55s-1.136-.43-1.566-.002L16 20.386 4.133 8.962z" id="icon-arrow-down"/><path class="path1" d="M28 4.33H17.62l3.117 3.117-7.356 7.356h-.01V27.67h5.594V17.13l5.728-5.728L28 14.71V4.33zM12.824 17.11L4 8.284 7.955 4.33l7.632 7.632-2.752 2.752h-.01v2.395z" id="icon-direction"/></defs><g fill="#464646"><use xlink:href="#icon-driving"/><use xlink:href="#icon-email" transform="translate(48)"/><use xlink:href="#icon-navigate" transform="translate(96)"/><use xlink:href="#icon-geolocation" transform="translate(144)"/><use xlink:href="#icon-flag" transform="translate(192)"/><use xlink:href="#icon-transit" transform="translate(240)"/><use xlink:href="#icon-walking" transform="translate(290)"/><use xlink:href="#icon-bicycling" transform="translate(338)"/><use xlink:href="#icon-cross" transform="translate(386)"/><use xlink:href="#icon-menu" transform="translate(434)"/><use xlink:href="#icon-twitter" transform="translate(482)"/><use xlink:href="#icon-facebook" transform="translate(528)"/><use xlink:href="#icon-github" transform="translate(558)"/><use xlink:href="#icon-rss" transform="translate(606)"/><use xlink:href="#icon-site" transform="translate(647)"/><use xlink:href="#icon-pinterest" transform="translate(693)"/><use xlink:href="#icon-google-plus" transform="translate(0 48)"/><use xlink:href="#icon-linkedin" transform="translate(48 48)"/><use xlink:href="#icon-youtube" transform="translate(96 48)"/><use xlink:href="#icon-stack-overflow" transform="translate(144 48)"/><use xlink:href="#icon-skype" transform="translate(192 48)"/><use xlink:href="#icon-vk" transform="translate(240 48)"/><use xlink:href="#icon-arrow-down" transform="translate(290 48)"/><use xlink:href="#icon-direction" transform="translate(338 48)"/></g></svg>